<?xml version="1.0" encoding="utf-8"?>
<!-- Generator: Adobe Illustrator 26.0.1, SVG Export Plug-In . SVG Version: 6.00 Build 0)  -->
<svg version="1.1" id="Capa_1" xmlns="http://www.w3.org/2000/svg" xmlns:xlink="http://www.w3.org/1999/xlink" x="0px" y="0px"
	 viewBox="0 0 300 300" style="enable-background:new 0 0 300 300;" xml:space="preserve">
<style type="text/css">
	.st0{fill:url(#SVGID_1_);}
	.st1{clip-path:url(#XMLID_00000016037037402038288400000001392651549253452952_);fill:#3C3C3B;}
	.st2{fill:#FFFFFF;stroke:#3C3C3B;stroke-width:0.25;stroke-linecap:round;stroke-linejoin:round;stroke-miterlimit:10;}
	.st3{fill:none;stroke:#FFFFFF;stroke-width:0.1064;stroke-linecap:round;stroke-miterlimit:10;}
	.st4{fill:none;stroke:#3C3C3B;stroke-width:0.25;stroke-linecap:round;stroke-linejoin:round;stroke-miterlimit:10;}
	.st5{fill:#3C3C3B;}
	.st6{fill:#3C3C3B;stroke:#3C3C3B;stroke-width:0.1143;stroke-miterlimit:10;}
	.st7{fill:#FFFFFF;stroke:#3C3C3B;stroke-width:0.2732;stroke-linecap:round;stroke-linejoin:round;stroke-miterlimit:10;}
	.st8{fill:#1E1E1C;stroke:#3C3C3B;stroke-width:0.1009;stroke-miterlimit:10;}
	.st9{fill:url(#SVGID_00000015343843542288472130000009230432281675585710_);}
	.st10{fill:#1D1D1B;}
	.st11{fill:#FFFFFF;}
	.st12{fill:none;stroke:#3C3C3B;stroke-width:0.1143;stroke-linecap:round;stroke-linejoin:round;stroke-miterlimit:10;}
	.st13{fill:none;stroke:#3C3C3B;stroke-width:0.25;stroke-linecap:round;stroke-miterlimit:10;}
	.st14{fill:#FFFFFF;stroke:#3C3C3B;stroke-width:0.25;stroke-miterlimit:10;}
	.st15{fill:none;stroke:#FFFFFF;stroke-width:0.25;stroke-linecap:round;stroke-linejoin:round;stroke-miterlimit:10;}
	.st16{fill:#1E1E1C;}
	.st17{fill:#FFFFFF;stroke:#3C3C3B;stroke-width:0.1143;stroke-linecap:round;stroke-miterlimit:10;}
	.st18{fill:none;stroke:#3C3C3B;stroke-width:0.1143;stroke-linecap:round;stroke-miterlimit:10;}
	.st19{fill:#FFFFFF;stroke:#3C3C3B;stroke-width:0.2599;stroke-linecap:round;stroke-linejoin:round;stroke-miterlimit:10;}
	.st20{fill:none;stroke:#FFFFFF;stroke-width:0.1143;stroke-linecap:round;stroke-miterlimit:10;}
	.st21{fill:url(#SVGID_00000012464699233231215160000005567982860022980229_);}
	.st22{fill:url(#SVGID_00000138559263865283116830000001523789196760588961_);}
	.st23{fill:url(#SVGID_00000054950698711036869840000017318986924025155485_);}
	.st24{fill:url(#SVGID_00000135659796999542355320000014686872888934327222_);}
	.st25{fill:url(#SVGID_00000115509864383986773560000009175540669537776829_);}
	.st26{fill:url(#SVGID_00000026851174932604067880000000968574520279877282_);}
	.st27{fill:url(#SVGID_00000041263790822110588530000003557960064623899550_);}
	.st28{fill:url(#SVGID_00000024713180755188008900000003993582573326570889_);}
	.st29{fill:url(#SVGID_00000174560801829705452520000014450430549480639883_);}
</style>
<g>
	<g>
		
			<radialGradient id="SVGID_1_" cx="2360.49" cy="255.5764" r="52.1419" gradientTransform="matrix(3.4919 3.042131e-02 -6.493436e-02 0.6107 -8077.4316 27.6829)" gradientUnits="userSpaceOnUse">
			<stop  offset="0" style="stop-color:#72A255"/>
			<stop  offset="4.137310e-02" style="stop-color:#81AC67"/>
			<stop  offset="0.1619" style="stop-color:#A7C595"/>
			<stop  offset="0.2827" style="stop-color:#C7DABB"/>
			<stop  offset="0.4019" style="stop-color:#DFEAD9"/>
			<stop  offset="0.519" style="stop-color:#F1F6EE"/>
			<stop  offset="0.633" style="stop-color:#FBFDFB"/>
			<stop  offset="0.7405" style="stop-color:#FFFFFF"/>
		</radialGradient>
		<ellipse class="st0" cx="150" cy="255.7" rx="145.9" ry="20.1"/>
	</g>
	<g>
		<defs>
			<path id="XMLID_00000160166183119240900950000003220493797828268206_" d="M57.9,159.3c-5-25.5,1.9-52.6,22.6-69.4
				c8.7-6.9,17.8-12,28.9-14.6c22.7-5.6,45.8,6,58.8,24.5c6.4,10.1-7.7,19.7-14.8,10l0,0c-14.5-18.1-34.2-22.4-53.9-9.4
				c-19.4,11.8-26.2,33-21.7,55c0,0,1.9,8.6,1.9,8.6c2.1,13.4,5,19-9,14C64,173,60.5,166.4,57.9,159.3z"/>
		</defs>
		<clipPath id="XMLID_00000053508066759450506680000016401345237809356201_">
			<use xlink:href="#XMLID_00000160166183119240900950000003220493797828268206_"  style="overflow:visible;"/>
		</clipPath>
		<path style="clip-path:url(#XMLID_00000053508066759450506680000016401345237809356201_);fill:#3C3C3B;" d="M168.6,97.5
			c-1.5,2.4-3.2,5.2-5.2,7.5c-2.2,2.6-5.9,3.5-7.9,5.7c-3.2,3.6,2.1,4.9,5.3,5c4.7,0.3,7.9-2.5,9.3-7.1c1.4-4.5,1.8-7.9-1.4-11.4
			C168.5,97.3,168.6,97.5,168.6,97.5z"/>
		<path style="clip-path:url(#XMLID_00000053508066759450506680000016401345237809356201_);fill:#3C3C3B;" d="M166.3,94.8
			c-5,6-9,12-16.3,15.5c-0.8-2.7-3.9-2.9-4.6-5c6.3-2.5,13.2-10.3,14.9-17.1C162.7,87.5,165.8,93,166.3,94.8z"/>
		<path style="clip-path:url(#XMLID_00000053508066759450506680000016401345237809356201_);fill:#3C3C3B;" d="M144,102.4
			c5.1-2.3,7.6-8,10.1-12.7c1.7-3.1,2.3-3.7-0.2-5.8c-1.6-1.3-4.1-2.4-5.8-3.6c-0.8,3.4-3,6.8-4.2,10.2c-1.2,3.4-2.2,7-5.2,8.8
			C140.5,100.3,143.3,101.4,144,102.4z"/>
		<path style="clip-path:url(#XMLID_00000053508066759450506680000016401345237809356201_);fill:#3C3C3B;" d="M134.9,98.6
			c2.5-3,2.6-8,3.2-11.7c0.5-2.5,1.7-10.6-0.2-12.9c-0.5-0.6-4.4-1.4-5.4-1.3c-3.2,0.2-3,1-2.6,3.9c0.6,5.1,1.3,9.1,0.4,14.2
			c-0.3,1.5-2.1,5.2-1.3,6.2C129.4,97.5,134.5,98.5,134.9,98.6z"/>
		<path style="clip-path:url(#XMLID_00000053508066759450506680000016401345237809356201_);fill:#3C3C3B;" d="M124.2,95.2
			c0.4-6,1.8-12.5,0.7-18.5c-1.2-6.7-9.7-3.6-14.5-2c0.1,2.2,3.3,4,4.3,6.1c1.1,2.3,1.3,4.6,1.9,7.1c0.3,1.4,0.3,5.5,1.1,6.7
			C118.8,96,121.7,95.4,124.2,95.2z"/>
		<path style="clip-path:url(#XMLID_00000053508066759450506680000016401345237809356201_);fill:#3C3C3B;" d="M114.1,97.1
			c-0.7-4.7-5.3-23.3-10.6-22.2c-1.8,0.4-9.7,3.3-9.7,5.4c-0.1,1.5,5.2,4.7,6.3,5.9c1.9,2.2,3.5,4.7,4.6,7.4
			c0.6,1.5,0.8,4.8,2.4,5.6C108.4,99.8,112.4,98,114.1,97.1z"/>
		<path style="clip-path:url(#XMLID_00000053508066759450506680000016401345237809356201_);fill:#3C3C3B;" d="M102,101.5
			c-0.3-4.7-3.8-8-6.5-11.5c-1.5-2-4.8-8.4-7.4-8.4c-1.6,0-7.5,5.5-8.8,6.9c-2.3,2.4-1.2,2,1.9,3.2c2.5,0.9,4.9,2,7.3,3.2
			c2.4,1.2,4.7,2.5,6.7,4.3c1.6,1.4,2.9,3.6,4.7,4.6c0.3-0.6,0.7-0.7,0.9-1.4C101,102.3,101.7,102.3,102,101.5z"/>
		<path style="clip-path:url(#XMLID_00000053508066759450506680000016401345237809356201_);fill:#3C3C3B;" d="M95.6,106.3
			c-2.1-3.4-7.2-4.7-9.9-7.4c-3-3.2-8.8-10.5-15-2.5c-1.1,1.5-6.3,4.9-4.7,6.9c0.8,1,4.9,3.3,6.3,3.5c4,0.6,9.6-0.3,13.3,1.4
			c2.1,0.9,4.4,4,6.7,3.2C93.6,110.9,94.4,107.5,95.6,106.3z"/>
		<path style="clip-path:url(#XMLID_00000053508066759450506680000016401345237809356201_);fill:#3C3C3B;" d="M89.4,115.3
			c-6.5-3.1-16.4-5-23.6-6.1c-2.2-0.3-4.5-1.1-5.9,0.5c-0.8,1-1.4,4.7-1.9,6c-0.6,1.6-1.5,3.8,0,4.7c0.7,0.4,3-0.5,3.9-0.5
			c1.6,0,3.2,0.6,4.8,0.8c6,1.1,11.4,1.9,16.4,5.3c1.6-1.4,1.9-2.9,2.8-4.7C86.7,119.8,88.7,117.7,89.4,115.3z"/>
		<path style="clip-path:url(#XMLID_00000053508066759450506680000016401345237809356201_);fill:#3C3C3B;" d="M80.5,129
			c-1.6-1.1-10.4-1.3-13.5-1.7c-3.9-0.5-8.3-0.7-12.2,0.3c0.4,2.2-1.4,6.6-0.6,8.3c1.1,2.4,7.5-0.1,10.3-0.3c4.3-0.3,8.3-1,12.5-1.5
			c5-0.6,2.5-1.2,3.4-5.3C80.1,128.7,79.8,128.7,80.5,129z"/>
		<path style="clip-path:url(#XMLID_00000053508066759450506680000016401345237809356201_);fill:#3C3C3B;" d="M80,139.4
			c-3.4,1.6-10.8,0.5-15,0.8c-4.2,0.3-8.7,0.5-12.6,0.9c0.6,2,0.3,6.7,2.2,7.6c2.4,1.1,9.9-1.7,12.5-2.1c5.6-0.9,15.6,0.4,12.9-7.5
			C79.4,139,79.2,139.2,80,139.4z"/>
		<path style="clip-path:url(#XMLID_00000053508066759450506680000016401345237809356201_);fill:#3C3C3B;" d="M80.7,150.6
			c-5.8-2.2-15,0.9-21,1.9c-1.3,0.2-5.6,0.3-6.3,1.4c-1,1.6,1.8,4.4,2,6c5.7-0.4,11.3-1.4,16.8-2.7c4.3-1,10.1-1,7.2-7.1
			C79,150.1,78.7,150.1,80.7,150.6z"/>
		<path style="clip-path:url(#XMLID_00000053508066759450506680000016401345237809356201_);fill:#3C3C3B;" d="M84,159
			c-6.2,0.4-15.4,4.4-20.5,7.8c-1.1,0.7-5,2.6-5.1,3.9c-0.2,1.8,3.4,3.3,4.3,4.7c5-2.7,9.7-6.1,14.1-9.4c3.5-2.7,11.4-3.6,6.2-7.9
			C82.7,158.1,85.2,160.7,84,159z"/>
		
			<use xlink:href="#XMLID_00000160166183119240900950000003220493797828268206_"  style="overflow:visible;fill:none;stroke:#3C3C3B;stroke-width:0.1039;stroke-linecap:round;stroke-linejoin:round;stroke-miterlimit:10;"/>
	</g>
	<g>
		<g>
			<path class="st2" d="M182.5,213c-1,1.7-0.5,2.8,1.5,4.9c2.1,2.3,4.2,4,5.7,6.7c1.6,2.8,3.1,5,5.7,7c0.7,0.5,1.4,0.9,2.1,1.2
				c0,0,6.5,1.6,7.1,1.9c0.6,0.3,1.2,0.3,1.7,0.6c1.1,0.7,1.1,2.2,1.7,3.2c0.2,0.4,1,1,0.9,1.5c-0.2,0.7-1,0.4-1.5,0.1
				c-1.1-0.8-1.1-2.3-2.3-3.1c-1.3-0.8-6-1.5-6.9,0.2c-0.5,0.9,0.1,2.7,0.6,3.5c0.5,0.8,0.6,3.1-1.1,2c-0.9-0.6-0.6-2.4-1.3-3.3
				c-0.6-0.8-1.7-1.7-2.8-2.4l-2.5-0.5c-3.6-1.1-7.2-2.2-10.4-4.1c-3.6-2.1-8.1-5.2-10.9-8.4c-2.1-2.4-6.3-10-10.4-8.8"/>
			<path class="st3" d="M102.7,268.5c-1.1-0.5-2.5-1.3-3.3-2.2"/>
			<path class="st3" d="M106.3,265.5c-1.1-0.7-2.8-1-3.6-2.2"/>
			<path class="st4" d="M171.6,213.7c4.3,0.5,10.2-1,12.4-0.6c3,0.5,11.4-1.9,13.9-3.4c2.5-1.5,8.8,0.8,10.3,0.8s8.9,1.7,8.9,1.7"/>
			<path class="st2" d="M218.6,201.7c-0.6-1.2-1-5.8-1.5-8.9c-0.5-2.7-4-7.2-8.3-8.5c-8.8-2.8-16.3-4.5-20.5-5.6
				c-14.9-4.1-38.8-20.4-49.5-22.7c-10.7-2.3-24.4-1.9-37-1.3C78.3,160.1,73,171,71.5,178.5c-2,9.9,7.1,23.4,16.9,30.1
				c9.4,6.4,29.3,10.2,45.2,8.3"/>
			<path class="st5" d="M226,206.9c0.1,1.3-2.9,4.6-2.9,4.6s-2.6,1.7-5.1,1.2c-2.5-0.5-2.4,0.1-3.6-1.6c-1.2-2.6-1.6-4.2-0.7-7.3
				c-2.3,0.6-4.7,0.7-6.3-0.5c-2.1-1.6-2.5-2.2-1.9-4.9c0.4-1.7,1.4-6.6,3.2-6.9c1.8-0.3,5.1,3,6.9,8.9c0.2,0.8,2.5,0,2.5,0
				S225.9,206.2,226,206.9z"/>
			<g>
				<path class="st6" d="M207,199.7c0,0,1,3.2,2.3,3.8c1.3,0.6,2.8,0.6,2.8,0.6s0.8-1.6,1.1-1.7c0.4-0.1,1.4-0.2,1.5-0.5
					s0-0.9-0.1-1.2s0.5-3-1.1-3.9c-1.5-0.9-2.8-1.2-3.6-0.5C209.2,196.8,207,199.7,207,199.7z"/>
			</g>
			<path class="st7" d="M192.5,198.8c-0.5-0.1-5.3-4-5.9-8.3c-0.8-5.5-0.1-13.6,0.8-14.4s8.4,2.5,10.9,4c3.7,2.1,5.2,9.8,4.9,11.6"
				/>
			<path class="st4" d="M90.9,221.9c2.6-2.6,3.9-4,5.8-5.4"/>
			<path class="st2" d="M99.7,179.9c7.9,5.6,11.6,13,14,17.8c4.5,9,6.5,17,3.7,23.8c-2.7,6.3-27.3,25.5-27.3,26.6c0,1.2,2,2,4,3
				c2,1,10.8,2.9,13.3,3.4c2,0.4,3.9-0.2,4.3,1.8c0.4,2.1-2.1,1.8-4.5,1.2c-2.2-0.5-4.3-0.4-4.9-0.5c0.2,0.6,2.7,2.9,3.9,4.4
				c0.6,0.7,1.4,2.1,0.7,2.8c-0.7,0.8-2,0.3-3-0.6c-0.7-0.6-1.1-1-1.6-1.3c0.1,0.2,0.7,0.7,1.4,1.6s0.7,1.9,0.3,2.5
				c-0.5,0.9-1.8,0.5-2.3,0c-0.1-0.1,0.8,1.4-0.4,2.2c-0.8,0.5-2.7-0.7-2.2-0.3c0.3,0.2,0.3,0.8-0.8,1.2c-0.8,0.2-4-2.8-4.4-3.1
				c-2-2-5.1-4.2-6.9-6.3l-0.1-0.1c-2.8-2.9-6.2-8-7.8-10.1c-2.3-2.8-3.8-5.1-3.8-7.3c0-2.3,15.6-20.8,15.6-20.8
				s-14.5-14.2-17.7-19.9c-3.9-6.9-4.2-18.9-1.3-25.6"/>
			<path class="st5" d="M93.9,266.3c0.4,0.4,3.6,3.4,4.4,3.1c1.1-0.3,1.1-0.9,0.8-1.2c-0.5-0.4,1.4,0.8,2.2,0.3
				c1.2-0.7,0.2-2.3,0.4-2.2c0.5,0.5,1.8,0.9,2.3,0c0.4-0.6,0.3-1.5-0.4-2.4c-0.7-0.9-1.2-1.5-1.3-1.7c0.4,0.3,0.9,0.7,1.6,1.2
				c1.1,0.9,2.4,1.4,3.1,0.6c0.7-0.7-0.1-2.1-0.7-2.8c-1.2-1.5-3.8-3.8-3.9-4.4c0.6,0.2,2.6,0,4.9,0.5c2.4,0.6,5,0.9,4.5-1.2
				c-0.4-2-2.3-1.4-4.3-1.8c-0.8-0.2-2.1-0.4-3.7-0.8l-1.6,3.2L93.9,266.3z"/>
			<g>
				<path class="st8" d="M207.5,198.7c0,0,0.1,2.9,1.1,3.7s2.2,1.2,2.2,1.2s1-1.2,1.4-1.2c0.3,0,1.2,0.1,1.4-0.1
					c0.1-0.2,0.2-0.8,0.2-1c0-0.3,1.1-2.4,0-3.6c-1.1-1.2-2.1-1.6-2.9-1.3S207.5,198.7,207.5,198.7z"/>
				
					<linearGradient id="SVGID_00000176042622956402256400000010021207147344264347_" gradientUnits="userSpaceOnUse" x1="209.8689" y1="200.6869" x2="213.2291" y2="199.1289">
					<stop  offset="0" style="stop-color:#E78A16"/>
					<stop  offset="0.438" style="stop-color:#E98D16"/>
					<stop  offset="0.7409" style="stop-color:#EE9516"/>
					<stop  offset="1" style="stop-color:#F6A316"/>
				</linearGradient>
				<circle style="fill:url(#SVGID_00000176042622956402256400000010021207147344264347_);" cx="211.4" cy="200" r="2.1"/>
				<circle class="st10" cx="212.3" cy="199.7" r="0.8"/>
			</g>
			<circle class="st11" cx="212.7" cy="199.6" r="0.2"/>
			<path class="st12" d="M216.6,191.1c-5-1.9-9.8-3.9-12.6,0"/>
			<path class="st12" d="M192,199.2c0.3,4.2-6.5,3.9-9,5.1c-3.5,1.7-2.7,3.8-6.6,4.7"/>
			<path class="st13" d="M90.2,247.9c-0.6,1.7-2.5,2.1-4.1,2.2"/>
			<path class="st4" d="M130.7,218.2c3.8,16.9-20.7,17-20.7,17.9c0,0.8,4.4,3.5,7.9,5.5c0,0,3.3,1.9,4.6,2.4
				c1.4,0.5,2.2,0.6,3.6,1.3c0.9,0.5,3.3,2.2,1.8,3.2c-0.7,0.5-1.8-0.2-2.7-0.5c0.6,0.4,1,1.2,1.1,1.7c0.3,1-0.7,1.6-1.4,1.6
				c-1.1-0.1-1.9-0.4-2.8-1.1c-0.4-0.3-1.3-1.1-1.4-0.9c-0.1,0.2,0.3,0.9,0.6,1.5c0.5,0.8,0.9,2.8,0.6,3c-0.4,0.4-1.7,0.3-3.6-1.7
				c-0.6-0.6-1.6-2.1-2.4-2.7c-0.6-0.4-1.7-0.5-1.9-0.3c0.9,3.9,0.6,7.7-1.9,5c-1.9-2-1-6.1-4.2-8.2l-0.5-0.6
				c-1.6-1.2-3.1-2.4-5-4.3c-1.7-1.8-0.6-3.2,0-4"/>
			<path class="st5" d="M126.1,245.3c-1-0.5-1.7-0.7-2.6-1c-3.5,4.3-8.2,3.8-13.2,4.7c0.6,1.8,0.8,3.7,1.9,4.9
				c2.5,2.7,2.8-1.1,1.9-5c0.2-0.2,1.3-0.1,1.9,0.3c0.9,0.6,1.9,2.1,2.4,2.7c1.9,2.1,3.1,2.2,3.6,1.7c0.3-0.2-0.1-2.2-0.6-3
				c-0.4-0.6-0.8-1.3-0.6-1.5s1,0.6,1.4,0.9c0.9,0.7,1.7,1,2.8,1.1c0.6,0.1,1.7-0.6,1.4-1.6c-0.2-0.5-0.5-1.3-1.1-1.7
				c0.8,0.3,2,1.1,2.7,0.5C129.4,247.5,127,245.8,126.1,245.3z"/>
			<path class="st14" d="M154.4,192.6c0,0-16.6,11.9-21.1,19.7c-1,1.6,4.8,17.1,5.7,19.7c0.6,1.7,9.7,18.2,9.7,18.2s2.7,3.8,3.7,5.6
				c0.8,1.4,1.8,7,3.5,6.9c1.7-0.3,0.3-2.3,0.1-3c-0.2-0.8-0.6-2.3-0.3-2.4c0.7-0.4,1.9,2.3,2.7,3.5c0.7,1,0.1,2.2,0.7,3.4
				c0.5,1,1.1,1.5,1.8,0.6c0.6-0.7,0.3-2.7-0.2-4.3c-0.6-1.7-2.3-3.6-1.9-3.9c0.5-0.3,2.4,1.5,3.2,2.7c0.7,1.1,0.1,3.2,2.3,2.8
				c0.5-1.4-0.1-3.4-0.9-4.9c-0.5-1-2.4-2.6-2.9-3c1.5,0,2-0.1,3.4,0.7c1.4,0.8,1.6,3.1,3.6,1.9c-0.2-1-1.6-3.6-2.5-4.1
				c-1-0.5-8.6-0.1-4.3-2.2c0.4-0.2,1.5-0.6,2.2-0.5c0.9,0.2,1.8-0.7,1.8-1.2c-0.1-1.2-1.3-1.3-2.4-0.9c-1.1,0.4-3.4,1.4-4.9,0.1
				c-1.6-1.4-5.4-7.8-5.4-7.8s-0.5-10.3,1.7-18.8c0.9-3.4,2.5-3.5,4.2-3.9c2.8-0.6,16.7-1.5,20.4-11"/>
			<path class="st5" d="M163.7,254.9c1.4,0.8,1.6,3.1,3.6,1.9c-0.2-1-1.6-3.6-2.5-4.1c-0.5-0.3-2.5-0.3-4-0.5c0.3,0.7,0.5,1.3,0.5,2
				C162.2,254.2,162.7,254.3,163.7,254.9z"/>
			<path class="st5" d="M160.5,250.5c0.4-0.2,1.5-0.6,2.2-0.5c0.9,0.2,1.8-0.7,1.8-1.2c-0.1-1.2-1.3-1.3-2.4-0.9
				c-0.8,0.3-2.2,0.9-3.5,0.7c0.4,0.7,0.9,1.4,1.4,2.1C160.2,250.7,160.3,250.6,160.5,250.5z"/>
			<path class="st5" d="M158.3,260.7c0.7,1,0.1,2.2,0.7,3.4c0.5,1,1.1,1.5,1.8,0.6c0.6-0.7,0.3-2.7-0.2-4.3c-0.4-1.1-1.2-2.2-1.6-3
				c-0.7,0.3-1.4,0.5-2.2,0.6C157.3,258.8,157.9,260,158.3,260.7z"/>
			<path class="st5" d="M159.8,257c0.7,0.6,1.6,1.5,2.1,2.3c0.7,1.1,0.1,3.2,2.3,2.8c0.5-1.4-0.1-3.4-0.9-4.9
				c-0.3-0.6-1.2-1.5-1.9-2.1c-0.1,0.4-0.2,0.8-0.5,1.1C160.5,256.5,160.2,256.8,159.8,257z"/>
			<path class="st5" d="M155.9,262.6c1.7-0.3,0.3-2.3,0.1-3c-0.1-0.4-0.3-1-0.3-1.5c-0.8,0.1-1.6,0.1-2.3,0.2
				C153.9,260.3,154.7,262.7,155.9,262.6z"/>
			<path class="st5" d="M192,183.3c0.7-1,4.5,4.3,5.9,6.5c1.8,2.9,1.8,4.3-1.7,4.8c0-0.7-0.1-1.5,0.1-2.1c-1.1-0.4-0.8-0.8-1.1-1.5
				c-0.1-0.2,0.1-0.7,0-1c-0.1-0.3-0.4-1.5-0.5-1.8C194.1,187.1,191.4,184.3,192,183.3z"/>
			<path class="st4" d="M204.3,234.7c1.9-0.5,5.9,2.5,6.3,3.7c0.4,1.4-0.6,1.1-1.3,0.4c-0.5-0.5-1-1-1.6-1.4"/>
			<path class="st5" d="M194.4,237.6c0.8,0.6,1.5,1.2,2,1.8c0.7,0.9,0.4,2.7,1.3,3.3c1.7,1.2,1.6-1.1,1.1-2
				c-0.5-0.8-1.1-2.6-0.6-3.5c0.2-0.3,0.4-0.5,0.8-0.7C197.4,236.5,195.9,237.1,194.4,237.6z"/>
			<path class="st5" d="M159.3,215.3l1.1-0.1C160,215.2,159.6,215.2,159.3,215.3z"/>
			<path class="st5" d="M208,238.6c-0.6-1-0.5-2.5-1.7-3.2c-0.5-0.3-1.2-0.3-1.7-0.6c-0.2-0.1-1-0.3-1.9-0.6c-0.5,0.6-1.3,1.1-1.2,2
				c1.5,0,3,0.4,3.7,0.8c1.2,0.8,1.2,2.3,2.3,3.1c0.4,0.3,1.3,0.7,1.5-0.1C209,239.5,208.2,239,208,238.6z"/>
			<path class="st5" d="M204.3,234.7c1.9-0.5,5.9,2.5,6.3,3.7c0.4,1.4-0.6,1.1-1.3,0.4c-0.5-0.5-1-1-1.6-1.4"/>
			<path class="st12" d="M202.2,191.4c-0.2-1.7-0.5-3.2-1.1-4.8c-0.5-1.4-1.5-2.5-2.3-3.8"/>
			<path class="st12" d="M191.5,185c-0.1,0-0.1,0-0.1,0.1c0.3,1.2,1.7,2.2,2.4,3.2c0.8,1.1,0.3,2.3,0.6,3.5c0.2,0.8,0.6,0.8,1,1.3"
				/>
			<path class="st12" d="M192.8,197.9c-1.3-0.9-3.4-2.7-4-4.1"/>
			<path class="st15" d="M99.5,268.7c-0.2-0.1-0.3-0.4-0.5-0.5c-0.3-0.3-0.5-0.7-0.8-1c-0.5-0.6-1.1-1-1.6-1.6
				c-0.2-0.2-0.4-0.4-0.7-0.6"/>
			<path class="st15" d="M102.4,267.4c-1.3-1.1-2.3-2.5-3.7-3.5c-0.2-0.2-0.5-0.3-0.7-0.5"/>
			<path class="st15" d="M105,265.2c-0.3-0.1-0.5-0.6-0.7-0.8c-0.3-0.3-0.5-0.5-0.8-0.8c-0.3-0.4-0.8-0.8-1.2-1.2
				c-0.7-0.6-1.4-1-2.1-1.6"/>
			<path class="st16" d="M223.7,204.8c0,0-0.2,0.6-0.2,1.2s0,0.8,0.5,1.2c0.5,0.4,0.8,0.5,0.7,1c-0.1,0.5-0.2,1.5-0.2,1.5
				s1.9-2.1,1.5-2.8C225.7,206.3,223.7,204.8,223.7,204.8z"/>
			<path class="st15" d="M121.9,250.6c-0.7-0.8-2-3.1-3.1-3.2"/>
			<path class="st15" d="M127,249c-0.9-0.1-2.1-1.1-3-1.6c-1.1-0.5-2.2-1-3.1-1.7"/>
			<path class="st17" d="M82.2,237.5c-1.4,1.7-5,5.4-3.5,7.7"/>
			<path class="st18" d="M131.7,214.2c-2.4,0-5.4-0.2-7.2,0.5"/>
			<path class="st18" d="M73.4,196.8c1.6,3.1,4.3,5.2,6,8.1c1.1,1.7,2.7,6.1,4.8,6.3c0.2,0.8,0.6,1.5,1.2,2"/>
		</g>
		<path class="st19" d="M203.2,182.1c0,0-0.8-6.5-2.8-6.3s-4.5,2-4.5,2"/>
		<path class="st20" d="M56.9,149.7c2.1,0.2,4.9-1.4,7-1.9c1.8-0.4,6-0.5,7.1-2"/>
		<path class="st20" d="M60.5,161.2c2.8-1.1,5.3-1.6,7.8-3.4c2.2-1.6,4.4-3.2,6.1-5.3"/>
		<path class="st20" d="M69.8,170.4c-0.1,0.1-0.1,0.1-0.2,0.2"/>
		<path class="st20" d="M68.4,171.1c2.5-0.9,4.2-3.4,5.8-5.4"/>
		<path class="st20" d="M76.9,162.4c0.9-1.1,1.7-2.8,2.2-4.1"/>
		<path class="st20" d="M74,138c-4.9,0-12.5,1-17.1-1.5"/>
		<path class="st20" d="M59.8,124.4c0.8,0.6,1.9,1,2.9,1.4"/>
		<path class="st20" d="M68.1,107.7c1.7,0.8,3,2.6,4.8,3.6"/>
		<path class="st20" d="M82.5,117.8c-3-0.7-5.5-2.3-8.1-3.6"/>
		<path class="st20" d="M91.5,105.9c-2.8-1.1-5.7-2.1-8.3-3.6"/>
		<path class="st20" d="M101.5,93c-1.6-2.2-5.8-2.2-7.6-3.9"/>
		<path class="st20" d="M107.5,73.3c-2.6,1.9-6.3-0.7-9,0.5"/>
	</g>
	<g>
		
			<radialGradient id="SVGID_00000148627653216418968400000012575790916032352138_" cx="198.0335" cy="100.4067" r="1.8777" gradientUnits="userSpaceOnUse">
			<stop  offset="0" style="stop-color:#8F925B"/>
			<stop  offset="1.322751e-02" style="stop-color:#72A255"/>
			<stop  offset="0.2341" style="stop-color:#74A458"/>
			<stop  offset="0.3872" style="stop-color:#7CA961"/>
			<stop  offset="0.5196" style="stop-color:#89B170"/>
			<stop  offset="0.6404" style="stop-color:#9BBD86"/>
			<stop  offset="0.7534" style="stop-color:#B2CCA2"/>
			<stop  offset="0.8604" style="stop-color:#CFDFC5"/>
			<stop  offset="0.9609" style="stop-color:#F0F5ED"/>
			<stop  offset="1" style="stop-color:#FFFFFF"/>
		</radialGradient>
		<circle style="fill:url(#SVGID_00000148627653216418968400000012575790916032352138_);" cx="198" cy="100.4" r="1.9"/>
	</g>
	<g>
		
			<radialGradient id="SVGID_00000179629303606984310670000000551858580037855875_" cx="178.7573" cy="154.3495" r="1.8777" gradientUnits="userSpaceOnUse">
			<stop  offset="0" style="stop-color:#8F925B"/>
			<stop  offset="1.322751e-02" style="stop-color:#72A255"/>
			<stop  offset="0.2341" style="stop-color:#74A458"/>
			<stop  offset="0.3872" style="stop-color:#7CA961"/>
			<stop  offset="0.5196" style="stop-color:#89B170"/>
			<stop  offset="0.6404" style="stop-color:#9BBD86"/>
			<stop  offset="0.7534" style="stop-color:#B2CCA2"/>
			<stop  offset="0.8604" style="stop-color:#CFDFC5"/>
			<stop  offset="0.9609" style="stop-color:#F0F5ED"/>
			<stop  offset="1" style="stop-color:#FFFFFF"/>
		</radialGradient>
		<circle style="fill:url(#SVGID_00000179629303606984310670000000551858580037855875_);" cx="178.8" cy="154.3" r="1.9"/>
	</g>
	<g>
		
			<radialGradient id="SVGID_00000093881592293860596220000003009944896137688972_" cx="243.4452" cy="152.5878" r="1.8777" gradientUnits="userSpaceOnUse">
			<stop  offset="0" style="stop-color:#8F925B"/>
			<stop  offset="1.322751e-02" style="stop-color:#72A255"/>
			<stop  offset="0.2341" style="stop-color:#74A458"/>
			<stop  offset="0.3872" style="stop-color:#7CA961"/>
			<stop  offset="0.5196" style="stop-color:#89B170"/>
			<stop  offset="0.6404" style="stop-color:#9BBD86"/>
			<stop  offset="0.7534" style="stop-color:#B2CCA2"/>
			<stop  offset="0.8604" style="stop-color:#CFDFC5"/>
			<stop  offset="0.9609" style="stop-color:#F0F5ED"/>
			<stop  offset="1" style="stop-color:#FFFFFF"/>
		</radialGradient>
		<circle style="fill:url(#SVGID_00000093881592293860596220000003009944896137688972_);" cx="243.4" cy="152.6" r="1.9"/>
	</g>
	<g>
		
			<radialGradient id="SVGID_00000150062950023351445580000010271535657493960111_" cx="200.0085" cy="148.2409" r="1.8777" gradientUnits="userSpaceOnUse">
			<stop  offset="0" style="stop-color:#8F925B"/>
			<stop  offset="1.322751e-02" style="stop-color:#72A255"/>
			<stop  offset="0.2341" style="stop-color:#74A458"/>
			<stop  offset="0.3872" style="stop-color:#7CA961"/>
			<stop  offset="0.5196" style="stop-color:#89B170"/>
			<stop  offset="0.6404" style="stop-color:#9BBD86"/>
			<stop  offset="0.7534" style="stop-color:#B2CCA2"/>
			<stop  offset="0.8604" style="stop-color:#CFDFC5"/>
			<stop  offset="0.9609" style="stop-color:#F0F5ED"/>
			<stop  offset="1" style="stop-color:#FFFFFF"/>
		</radialGradient>
		<circle style="fill:url(#SVGID_00000150062950023351445580000010271535657493960111_);" cx="200" cy="148.2" r="1.9"/>
	</g>
	<g>
		
			<radialGradient id="SVGID_00000060016210667075536930000011539771914878370945_" cx="243.0671" cy="125.2973" r="1.8777" gradientUnits="userSpaceOnUse">
			<stop  offset="0" style="stop-color:#8F925B"/>
			<stop  offset="1.322751e-02" style="stop-color:#72A255"/>
			<stop  offset="0.2341" style="stop-color:#74A458"/>
			<stop  offset="0.3872" style="stop-color:#7CA961"/>
			<stop  offset="0.5196" style="stop-color:#89B170"/>
			<stop  offset="0.6404" style="stop-color:#9BBD86"/>
			<stop  offset="0.7534" style="stop-color:#B2CCA2"/>
			<stop  offset="0.8604" style="stop-color:#CFDFC5"/>
			<stop  offset="0.9609" style="stop-color:#F0F5ED"/>
			<stop  offset="1" style="stop-color:#FFFFFF"/>
		</radialGradient>
		<circle style="fill:url(#SVGID_00000060016210667075536930000011539771914878370945_);" cx="243.1" cy="125.3" r="1.9"/>
	</g>
	<g>
		
			<radialGradient id="SVGID_00000126295017289257988520000015580347279150309765_" cx="217.6816" cy="154.1642" r="1.8777" gradientUnits="userSpaceOnUse">
			<stop  offset="0" style="stop-color:#8F925B"/>
			<stop  offset="1.322751e-02" style="stop-color:#72A255"/>
			<stop  offset="0.2341" style="stop-color:#74A458"/>
			<stop  offset="0.3872" style="stop-color:#7CA961"/>
			<stop  offset="0.5196" style="stop-color:#89B170"/>
			<stop  offset="0.6404" style="stop-color:#9BBD86"/>
			<stop  offset="0.7534" style="stop-color:#B2CCA2"/>
			<stop  offset="0.8604" style="stop-color:#CFDFC5"/>
			<stop  offset="0.9609" style="stop-color:#F0F5ED"/>
			<stop  offset="1" style="stop-color:#FFFFFF"/>
		</radialGradient>
		<circle style="fill:url(#SVGID_00000126295017289257988520000015580347279150309765_);" cx="217.7" cy="154.2" r="1.9"/>
	</g>
	<g>
		
			<radialGradient id="SVGID_00000178162437470109980190000009231285352173201294_" cx="161.5516" cy="122.2913" r="1.8777" gradientUnits="userSpaceOnUse">
			<stop  offset="0" style="stop-color:#8F925B"/>
			<stop  offset="1.322751e-02" style="stop-color:#72A255"/>
			<stop  offset="0.2341" style="stop-color:#74A458"/>
			<stop  offset="0.3872" style="stop-color:#7CA961"/>
			<stop  offset="0.5196" style="stop-color:#89B170"/>
			<stop  offset="0.6404" style="stop-color:#9BBD86"/>
			<stop  offset="0.7534" style="stop-color:#B2CCA2"/>
			<stop  offset="0.8604" style="stop-color:#CFDFC5"/>
			<stop  offset="0.9609" style="stop-color:#F0F5ED"/>
			<stop  offset="1" style="stop-color:#FFFFFF"/>
		</radialGradient>
		<circle style="fill:url(#SVGID_00000178162437470109980190000009231285352173201294_);" cx="161.6" cy="122.3" r="1.9"/>
	</g>
	<g>
		
			<radialGradient id="SVGID_00000108307509571692721320000002167864422420875176_" cx="233.7182" cy="143.6925" r="1.8777" gradientUnits="userSpaceOnUse">
			<stop  offset="0" style="stop-color:#8F925B"/>
			<stop  offset="1.322751e-02" style="stop-color:#72A255"/>
			<stop  offset="0.2341" style="stop-color:#74A458"/>
			<stop  offset="0.3872" style="stop-color:#7CA961"/>
			<stop  offset="0.5196" style="stop-color:#89B170"/>
			<stop  offset="0.6404" style="stop-color:#9BBD86"/>
			<stop  offset="0.7534" style="stop-color:#B2CCA2"/>
			<stop  offset="0.8604" style="stop-color:#CFDFC5"/>
			<stop  offset="0.9609" style="stop-color:#F0F5ED"/>
			<stop  offset="1" style="stop-color:#FFFFFF"/>
		</radialGradient>
		<circle style="fill:url(#SVGID_00000108307509571692721320000002167864422420875176_);" cx="233.7" cy="143.7" r="1.9"/>
	</g>
	<g>
		
			<radialGradient id="SVGID_00000171688408092944106950000002739722875477107883_" cx="274.2655" cy="-575.3144" r="43.0281" gradientTransform="matrix(1.1503 -0.2677 0.2266 0.974 20.3155 756.9185)" gradientUnits="userSpaceOnUse">
			<stop  offset="0" style="stop-color:#C2D1AD"/>
			<stop  offset="1" style="stop-color:#FFFFFF"/>
		</radialGradient>
		<path style="fill:url(#SVGID_00000171688408092944106950000002739722875477107883_);" d="M231.3,96.9c4.7-4.9,11.7-7.6,18.9-8
			c4-0.2,7.3,1.7,8.8,4.7c2,4-0.5,7.5-1.8,11.6c-1.5,4.6-1.4,7.8,2.1,11.1c3.3,3.1,7,6.4,6.1,11.2c-1.1,5.9-8.2,10-14.7,10.3
			c-5.6,0.2-9.4-0.6-15,1.4c-5.1,1.8-9.2,4.3-12.5,8.1c-3.4,3.9-9.4,11.6-16,10.3c-5.2-1.1-7-7.3-13-8.4c-3.6-0.6-6.7,1.6-10.1,1.5
			c-3.7-0.1-5.6-2.9-6.9-5.6c-1.6-3.5-2.1-6.5-5.4-9c-2.9-2.2-4.5-8.5-7.9-10.3c-3-1.5-10.2,2.6-9.9-0.7c1.3-13.7-2.3-7.1-4.6-5.7
			c-1.1,0.7-4.3-0.4-5.2-1.1c-3.3-2.8,3.7-4,6.6-5.9c4.7-3.1,11.1-4.5,14.4-9.2c1.3-1.8,1.3-5.2,3.1-6.8c2.2-1.9,5.7,3.3,8,4.5
			c2.7,1.3,7.3,2.2,9.9,3.8c3,1.9,4.8,0.5,7,3.1C194.8,109.6,213.4,115.8,231.3,96.9z"/>
	</g>
</g>
</svg>
