<?xml version="1.0" encoding="utf-8"?>
<!-- Generator: Adobe Illustrator 26.0.1, SVG Export Plug-In . SVG Version: 6.00 Build 0)  -->
<svg version="1.1" id="Capa_1" xmlns="http://www.w3.org/2000/svg" xmlns:xlink="http://www.w3.org/1999/xlink" x="0px" y="0px"
	 viewBox="0 0 300 300" style="enable-background:new 0 0 300 300;" xml:space="preserve">
<style type="text/css">
	.st0{fill:url(#SVGID_1_);}
	.st1{fill:url(#SVGID_00000035530811176171265210000007908844634145511870_);}
	.st2{clip-path:url(#XMLID_00000015313327491321657720000012401140820470721203_);fill:#3C3C3B;}
	.st3{fill:#FFFFFF;stroke:#3C3C3B;stroke-width:0.25;stroke-linecap:round;stroke-linejoin:round;stroke-miterlimit:10;}
	.st4{fill:none;stroke:#FFFFFF;stroke-width:0.1064;stroke-linecap:round;stroke-miterlimit:10;}
	.st5{fill:url(#SVGID_00000040537466315615841880000008555598605177195650_);}
	.st6{fill:url(#SVGID_00000131362737903634249770000008283509203720829096_);}
	.st7{fill:none;stroke:#3C3C3B;stroke-width:0.25;stroke-linecap:round;stroke-linejoin:round;stroke-miterlimit:10;}
	.st8{fill:#3C3C3B;}
	.st9{fill:#3C3C3B;stroke:#3C3C3B;stroke-width:0.1143;stroke-miterlimit:10;}
	.st10{fill:#FFFFFF;stroke:#3C3C3B;stroke-width:0.2732;stroke-linecap:round;stroke-linejoin:round;stroke-miterlimit:10;}
	.st11{fill:#1E1E1C;stroke:#3C3C3B;stroke-width:0.1009;stroke-miterlimit:10;}
	.st12{fill:url(#SVGID_00000154384716499321407700000017082388571560691615_);}
	.st13{fill:#1D1D1B;}
	.st14{fill:#FFFFFF;}
	.st15{fill:none;stroke:#3C3C3B;stroke-width:0.1143;stroke-linecap:round;stroke-linejoin:round;stroke-miterlimit:10;}
	.st16{fill:none;stroke:#3C3C3B;stroke-width:0.25;stroke-linecap:round;stroke-miterlimit:10;}
	.st17{fill:#FFFFFF;stroke:#3C3C3B;stroke-width:0.25;stroke-miterlimit:10;}
	.st18{fill:url(#SVGID_00000158010088062998057750000012469388998703218072_);}
	.st19{fill:url(#SVGID_00000029034748404572452900000003477475161301336205_);}
	.st20{fill:url(#SVGID_00000173149426208850474210000008447832085877268381_);}
	.st21{fill:url(#SVGID_00000177476959327924191850000017404931275994143892_);}
	.st22{fill:url(#SVGID_00000037654463846277591300000009589868192603596962_);}
	.st23{fill:url(#SVGID_00000109721528567528527750000013281244618103908030_);}
	.st24{fill:url(#SVGID_00000003804772910807479400000011795495912455317917_);}
	.st25{fill:url(#SVGID_00000016776431968984848220000010754895303756324251_);}
	.st26{fill:url(#SVGID_00000164487995069633365740000010226031206568941467_);}
	.st27{fill:url(#SVGID_00000033354252113876905840000008752917620561648017_);}
	.st28{fill:url(#SVGID_00000036952583899444106830000002389926531860684930_);}
	.st29{fill:url(#SVGID_00000040558414886031873610000006665314819118487445_);}
	.st30{fill:url(#SVGID_00000104674432935881443320000011002652086748775562_);}
	.st31{fill:url(#SVGID_00000117671668611707631360000006917060470697771184_);}
	.st32{fill:url(#SVGID_00000181072010212880665930000013958335690298599053_);}
	.st33{fill:url(#SVGID_00000109022977330451105330000002214795222368324525_);}
	.st34{fill:none;stroke:#FFFFFF;stroke-width:0.25;stroke-linecap:round;stroke-linejoin:round;stroke-miterlimit:10;}
	.st35{fill:#1E1E1C;}
	.st36{fill:url(#SVGID_00000008839553183307281850000007594206175986695354_);}
	.st37{fill:#FFFFFF;stroke:#3C3C3B;stroke-width:0.1143;stroke-linecap:round;stroke-miterlimit:10;}
	.st38{fill:none;stroke:#3C3C3B;stroke-width:0.1143;stroke-linecap:round;stroke-miterlimit:10;}
	.st39{fill:#FFFFFF;stroke:#3C3C3B;stroke-width:0.2599;stroke-linecap:round;stroke-linejoin:round;stroke-miterlimit:10;}
	.st40{fill:none;stroke:#FFFFFF;stroke-width:0.1143;stroke-linecap:round;stroke-miterlimit:10;}
</style>
<g>
	<g>
		
			<radialGradient id="SVGID_1_" cx="2360.49" cy="255.5764" r="52.1419" gradientTransform="matrix(3.4919 3.042131e-02 -6.493436e-02 0.6107 -8077.4316 27.6829)" gradientUnits="userSpaceOnUse">
			<stop  offset="0" style="stop-color:#72A255"/>
			<stop  offset="4.137310e-02" style="stop-color:#81AC67"/>
			<stop  offset="0.1619" style="stop-color:#A7C595"/>
			<stop  offset="0.2827" style="stop-color:#C7DABB"/>
			<stop  offset="0.4019" style="stop-color:#DFEAD9"/>
			<stop  offset="0.519" style="stop-color:#F1F6EE"/>
			<stop  offset="0.633" style="stop-color:#FBFDFB"/>
			<stop  offset="0.7405" style="stop-color:#FFFFFF"/>
		</radialGradient>
		<ellipse class="st0" cx="150" cy="255.7" rx="145.9" ry="20.1"/>
	</g>
	<g>
		<g>
			
				<radialGradient id="SVGID_00000142861362213286768810000001453793136300329613_" cx="57.4127" cy="47.254" r="1.8777" gradientUnits="userSpaceOnUse">
				<stop  offset="0" style="stop-color:#8F925B"/>
				<stop  offset="1.322751e-02" style="stop-color:#72A255"/>
				<stop  offset="0.2341" style="stop-color:#74A458"/>
				<stop  offset="0.3872" style="stop-color:#7CA961"/>
				<stop  offset="0.5196" style="stop-color:#89B170"/>
				<stop  offset="0.6404" style="stop-color:#9BBD86"/>
				<stop  offset="0.7534" style="stop-color:#B2CCA2"/>
				<stop  offset="0.8604" style="stop-color:#CFDFC5"/>
				<stop  offset="0.9609" style="stop-color:#F0F5ED"/>
				<stop  offset="1" style="stop-color:#FFFFFF"/>
			</radialGradient>
			<circle style="fill:url(#SVGID_00000142861362213286768810000001453793136300329613_);" cx="57.4" cy="47.3" r="1.9"/>
		</g>
		<g>
			<g>
				<defs>
					<path id="XMLID_00000146478025573421895840000013345677234166339463_" d="M58.4,55c11.1-7.2,27-9.5,38.1-0.6
						c4.5,3.5,7.3,7.5,9.6,11.9c2.2,4.4,2.3,10.4,1.2,14.8c-1.1,4.7-2.9,8.2-4.7,11.4c-6.5,11.5-16.2,19.3-22.2,30.3
						c-4.1,8.8-8.4,24.8-1.3,32.3c1.1,1.2,4,1.9,5.9,2.8c5.6,2.7,7.9,9.5,5.2,15.1c-2.7,5.6-9.5,7.9-15.1,5.2
						c-3.8-1.9-7.6-4.5-10.9-7.9c-13.7-14.4-10.5-36.4-3.3-53c5.6-12.9,28.8-34.6,26.5-42.4c-2.1-7.4-8.9-7.5-15.6-4.8
						c-0.9,0.3-2.1,1-2.7,1.3C58,78.1,47.8,62.5,58.4,55L58.4,55z"/>
				</defs>
				<clipPath id="XMLID_00000121270088968568075450000004267689022734192770_">
					<use xlink:href="#XMLID_00000146478025573421895840000013345677234166339463_"  style="overflow:visible;"/>
				</clipPath>
				<path style="clip-path:url(#XMLID_00000121270088968568075450000004267689022734192770_);fill:#3C3C3B;" d="M61.7,52.1
					c-1,2.3,0.6,7.2,1.7,9.3c1.5,3.2,3.5,6,6.1,8.4c1.2,1.1,2.4,1.5,1.7,2.8c-0.7,1.3-5,2.3-6.3,2.5c-5.3,0.8-11.9-1.4-13.8-6.8
					c-1.5-4-0.3-9.1,2.6-12.3C55.7,53.8,58.9,53.6,61.7,52.1z"/>
				<path style="clip-path:url(#XMLID_00000121270088968568075450000004267689022734192770_);fill:#3C3C3B;" d="M67.7,48.6
					c-0.5,4.7-0.5,9.5,1,14c0.7,2,1.6,4.7,2.7,6.3c1.5,2.1,3.8,2,6.5,1.9c0.4-7.1-0.5-14,1.9-20.9c1.2-3.4,0.7-3.4-3.1-2.7
					C74.2,47.8,69.7,47.2,67.7,48.6z"/>
				<path style="clip-path:url(#XMLID_00000121270088968568075450000004267689022734192770_);fill:#3C3C3B;" d="M80.2,70.7
					c1.1-3.6,1.5-7.1,2.3-10.8c0.4-2.2,2.3-8.7,4.2-10c2.2-1.5,7.2,0.8,9.3,2.1c1.7,1,3.9,1.6,2.5,3.5c-1.3,1.7-4.5,2.9-6,4.7
					c-3.3,3.9-5.7,8.3-7.8,12.5C83,72.2,81.5,71.5,80.2,70.7z"/>
				<path style="clip-path:url(#XMLID_00000121270088968568075450000004267689022734192770_);fill:#3C3C3B;" d="M85.7,74.4
					c1.6-1.7,4-2.8,5.6-4.4c1.3-1.2,2.6-2,4.1-3.1c2.7-1.8,5.6-4.9,9.3-4.3c3.2,0.5,4.2,5.4,4.8,8.5c1.1,5.2-4,3.3-7.6,3.5
					c-5.7,0.2-11,2.4-16,4.3C85.1,77.7,85.7,75.8,85.7,74.4z"/>
				<path style="clip-path:url(#XMLID_00000121270088968568075450000004267689022734192770_);fill:#3C3C3B;" d="M84.2,80.7
					c3.9,0.5,7.7,0,11.5-0.5c4.1-0.6,7.7,1.9,11.7,2.3c0.4,2.8-1.6,9.3-3.7,11.1c-2.4,2-3.1,0.1-5.5-1.4c-2.4-1.4-4.8-1.4-7.3-2.7
					c-3.1-1.6-6.5-3.7-10-4.1C81.8,84,83.1,81.9,84.2,80.7z"/>
				<path style="clip-path:url(#XMLID_00000121270088968568075450000004267689022734192770_);fill:#3C3C3B;" d="M99.8,97.1
					c-4.6-0.5-9.9-3.3-13.8-5.8c-1.5-0.9-2.9-2-4.5-2.8c-0.6-0.3-1.7-0.9-2.3-0.9c-1.9-0.2-1.1-0.3-2.2,1c-1.1,1.2-2.3,3-3.3,4.3
					c-1.5,2-1.2,2.5,0.8,4.1c4.7,4,9.5,7,15.3,9.3c1,0.4,3.6,1.6,4.7,1.5c1.6-0.2,1.7-1.1,2.5-2.9C97.9,102.9,100.3,99.3,99.8,97.1z
					"/>
				<path style="clip-path:url(#XMLID_00000121270088968568075450000004267689022734192770_);fill:#3C3C3B;" d="M70.7,99.5
					c2.6,3.6,5.5,5.2,9.8,7c3.4,1.4,6.8,3,9.7,4.6c-1,3-2.3,5.8-2.8,8.9c-5.7,0.9-13.9-4.2-17.7-8.2c-1.3-1.4-5-3.6-4.5-5.8
					C65.5,104.5,68.7,101.5,70.7,99.5z"/>
				<path style="clip-path:url(#XMLID_00000121270088968568075450000004267689022734192770_);fill:#3C3C3B;" d="M83.7,122.1
					c-2.6-0.9-5.4-0.1-8.1-1.1c-2.2-0.8-4-2-5.9-3.4c-1.5-1.1-7.6-7-9.4-6.2c-1.1,0.5-0.5,3.7-0.8,5c-0.4,1.7-2.3,4-2.2,5.7
					c0.1,4.5,11.1,7.2,14.7,7.5c2.1,0.2,7.9,1.8,9.5,0C82.8,128.1,82,123.6,83.7,122.1z"/>
				<path style="clip-path:url(#XMLID_00000121270088968568075450000004267689022734192770_);fill:#3C3C3B;" d="M79.2,133.3
					c-2.7-0.7-5.8-0.7-8.6-1.3c-1.7-0.4-3.4-0.7-5.2-1.1c-2.9-0.6-7.4-0.7-10-2.2c0.2,2-0.1,2.8-0.7,4.5c-0.5,1.4-1.5,3.2-1.3,4.7
					c6.2,0.4,12.1,1.3,18.5,1.3c1.8,0,4.6,0.5,6-0.8C79.4,137.2,78.8,135,79.2,133.3z"/>
				<path style="clip-path:url(#XMLID_00000121270088968568075450000004267689022734192770_);fill:#3C3C3B;" d="M77.4,142
					c-4.7,1.1-10.3,0.4-15.2,0.8c-3.1,0.2-6.2,0.4-9.3,0.5c-0.7,1.3,1.1,6,1.2,7.9c5,0.8,10.5-2.4,15.1-3.5
					C71.9,147.2,79.7,146.1,77.4,142z"/>
				<path style="clip-path:url(#XMLID_00000121270088968568075450000004267689022734192770_);fill:#3C3C3B;" d="M77.9,145.5
					c-2.1,1.6-3.9,3.6-6,5.3c-2.4,1.8-4.8,2.5-7.4,4c-2.2,1.3-3.1,0.8-5.7,1.3c-1.5,0.3-3,1.3-4.5,1.7c0.6,1,2.4,4.5,3.5,5
					c1.7,0.7,7.4-1.8,9.2-2.5c3.6-1.4,6-4,8.6-6.6C76.8,152.6,79.8,149.1,77.9,145.5z"/>
				<path style="clip-path:url(#XMLID_00000121270088968568075450000004267689022734192770_);fill:#3C3C3B;" d="M79.4,150.8
					c0.3,2.1-2,4.4-3.4,5.8c-2.3,2.1-3.7,4.2-6.3,5.9c-1.7,1-2.4,2.7-3.9,3.9c-0.7,0.6-1.7,0.5-2.5,1c-1.4,1-1.9,2.7-3.2,3.7
					c0.8,0.9,3.2,1.8,4.5,2.3c1.7,0.7,2,0.9,4-0.3c3.3-2,6-5.3,8.2-8.5c1.1-1.5,2.8-3.1,3.5-4.8c0.4-1.1,1.8-2.4,1.9-3.6
					C82.7,154.1,80.3,153,79.4,150.8z"/>
				
					<use xlink:href="#XMLID_00000146478025573421895840000013345677234166339463_"  style="overflow:visible;fill:none;stroke:#3C3C3B;stroke-width:0.1143;stroke-linecap:round;stroke-linejoin:round;stroke-miterlimit:10;"/>
			</g>
			<path class="st3" d="M182.5,213c-1,1.7-0.5,2.8,1.5,4.9c2.1,2.3,4.2,4,5.7,6.7c1.6,2.8,3.1,5,5.7,7c0.7,0.5,1.4,0.9,2.1,1.2
				c0,0,6.5,1.6,7.1,1.9c0.6,0.3,1.2,0.3,1.7,0.6c1.1,0.7,1.1,2.2,1.7,3.2c0.2,0.4,1,1,0.9,1.5c-0.2,0.7-1,0.4-1.5,0.1
				c-1.1-0.8-1.1-2.3-2.3-3.1c-1.3-0.8-6-1.5-6.9,0.2c-0.5,0.9,0.1,2.7,0.6,3.5c0.5,0.8,0.6,3.1-1.1,2c-0.9-0.6-0.6-2.4-1.3-3.3
				c-0.6-0.8-1.7-1.7-2.8-2.4l-2.5-0.5c-3.6-1.1-7.2-2.2-10.4-4.1c-3.6-2.1-8.1-5.2-10.9-8.4c-2.1-2.4-6.3-10-10.4-8.8"/>
			<path class="st4" d="M102.7,268.5c-1.1-0.5-2.5-1.3-3.3-2.2"/>
			<path class="st4" d="M106.3,265.5c-1.1-0.7-2.8-1-3.6-2.2"/>
			<g>
				
					<radialGradient id="SVGID_00000037664450465677683140000002673610708920983224_" cx="-264.4242" cy="-87.7932" r="12.9413" gradientTransform="matrix(-0.9988 4.907563e-02 -4.907563e-02 -0.9988 -181.741 9.5318)" gradientUnits="userSpaceOnUse">
					<stop  offset="0" style="stop-color:#8F925B"/>
					<stop  offset="1.322751e-02" style="stop-color:#72A255"/>
					<stop  offset="0.2341" style="stop-color:#74A458"/>
					<stop  offset="0.3872" style="stop-color:#7CA961"/>
					<stop  offset="0.5196" style="stop-color:#89B170"/>
					<stop  offset="0.6404" style="stop-color:#9BBD86"/>
					<stop  offset="0.7534" style="stop-color:#B2CCA2"/>
					<stop  offset="0.8604" style="stop-color:#CFDFC5"/>
					<stop  offset="0.9609" style="stop-color:#F0F5ED"/>
					<stop  offset="1" style="stop-color:#FFFFFF"/>
				</radialGradient>
				<path style="fill:url(#SVGID_00000037664450465677683140000002673610708920983224_);" d="M80.8,88.8c-0.3,1.4-5.6,1.9-4,4.5
					c0.5,0.8,2.2,1.1,3,1.9c1,1.1,1.4,2.7,2.7,3.6c1.4,0.9,3.6,0.6,5.2-0.1c2.3-1,2.7-3.2,3.3-5.4c0.6-2.6,1.5-3.9,3.4-5.7
					c2.3-2.1,3.5-5.3,2.1-8.3c-0.7-1.5-2.2-2.6-2.9-4.2c-0.4-0.9-0.4-2.2-1.1-2.9c-0.8-0.8-2.2-0.8-3-1.7c-0.6-0.6-0.7-1.7-1.7-1.4
					c-1.3,3.3-1.3,7.5-2,11c-0.4,1.7-0.7,3.5-1.7,5C83.2,86.4,81.8,87,80.8,88.8z"/>
			</g>
			<g>
				
					<radialGradient id="SVGID_00000036959720621458844120000010226634373294851978_" cx="88.9279" cy="94.4406" r="12.9413" gradientTransform="matrix(0.9936 -0.1133 0.1133 0.9936 -23.648 42.1702)" gradientUnits="userSpaceOnUse">
					<stop  offset="0" style="stop-color:#8F925B"/>
					<stop  offset="1.322751e-02" style="stop-color:#72A255"/>
					<stop  offset="0.2341" style="stop-color:#74A458"/>
					<stop  offset="0.3872" style="stop-color:#7CA961"/>
					<stop  offset="0.5196" style="stop-color:#89B170"/>
					<stop  offset="0.6404" style="stop-color:#9BBD86"/>
					<stop  offset="0.7534" style="stop-color:#B2CCA2"/>
					<stop  offset="0.8604" style="stop-color:#CFDFC5"/>
					<stop  offset="0.9609" style="stop-color:#F0F5ED"/>
					<stop  offset="1" style="stop-color:#FFFFFF"/>
				</radialGradient>
				<path style="fill:url(#SVGID_00000036959720621458844120000010226634373294851978_);" d="M81,121c0.2-1.4,5.5-2.3,3.7-4.8
					c-0.6-0.8-2.3-0.9-3.1-1.7c-1.1-1-1.6-2.6-3-3.4c-1.4-0.8-3.7-0.3-5.1,0.4c-2.2,1.1-2.5,3.4-2.9,5.6c-0.5,2.6-1.2,3.9-3,5.9
					c-2.1,2.3-3.2,5.5-1.6,8.5c0.8,1.5,2.3,2.5,3.1,4c0.4,0.8,0.6,2.2,1.3,2.8c0.8,0.7,2.2,0.7,3.1,1.5c0.6,0.5,0.8,1.6,1.8,1.3
					c1.1-3.3,0.8-7.6,1.3-11.1c0.2-1.7,0.4-3.5,1.4-5.1C78.7,123.5,80.1,122.9,81,121z"/>
			</g>
			<path class="st7" d="M171.6,213.7c4.3,0.5,10.2-1,12.4-0.6c3,0.5,11.4-1.9,13.9-3.4c2.5-1.5,8.8,0.8,10.3,0.8s8.9,1.7,8.9,1.7"/>
			<path class="st3" d="M218.6,201.7c-0.6-1.2-1-5.8-1.5-8.9c-0.5-2.7-4-7.2-8.3-8.5c-8.8-2.8-16.3-4.5-20.5-5.6
				c-14.9-4.1-38.8-20.4-49.5-22.7c-10.7-2.3-24.4-1.9-37-1.3C78.3,160.1,73,171,71.5,178.5c-2,9.9,7.1,23.4,16.9,30.1
				c9.4,6.4,29.3,10.2,45.2,8.3"/>
			<path class="st8" d="M226,206.9c0.1,1.3-2.9,4.6-2.9,4.6s-2.6,1.7-5.1,1.2c-2.5-0.5-2.4,0.1-3.6-1.6c-1.2-2.6-1.6-4.2-0.7-7.3
				c-2.3,0.6-4.7,0.7-6.3-0.5c-2.1-1.6-2.5-2.2-1.9-4.9c0.4-1.7,1.4-6.6,3.2-6.9c1.8-0.3,5.1,3,6.9,8.9c0.2,0.8,2.5,0,2.5,0
				S225.9,206.2,226,206.9z"/>
			<g>
				<path class="st9" d="M207,199.7c0,0,1,3.2,2.3,3.8c1.3,0.6,2.8,0.6,2.8,0.6s0.8-1.6,1.1-1.7c0.4-0.1,1.4-0.2,1.5-0.5
					s0-0.9-0.1-1.2s0.5-3-1.1-3.9c-1.5-0.9-2.8-1.2-3.6-0.5C209.2,196.8,207,199.7,207,199.7z"/>
			</g>
			<path class="st10" d="M192.5,198.8c-0.5-0.1-5.3-4-5.9-8.3c-0.8-5.5-0.1-13.6,0.8-14.4s8.4,2.5,10.9,4c3.7,2.1,5.2,9.8,4.9,11.6"
				/>
			<path class="st7" d="M90.9,221.9c2.6-2.6,3.9-4,5.8-5.4"/>
			<path class="st3" d="M99.7,179.9c7.9,5.6,11.6,13,14,17.8c4.5,9,6.5,17,3.7,23.8c-2.7,6.3-27.3,25.5-27.3,26.6c0,1.2,2,2,4,3
				c2,1,10.8,2.9,13.3,3.4c2,0.4,3.9-0.2,4.3,1.8c0.4,2.1-2.1,1.8-4.5,1.2c-2.2-0.5-4.3-0.4-4.9-0.5c0.2,0.6,2.7,2.9,3.9,4.4
				c0.6,0.7,1.4,2.1,0.7,2.8c-0.7,0.8-2,0.3-3-0.6c-0.7-0.6-1.1-1-1.6-1.3c0.1,0.2,0.7,0.7,1.4,1.6s0.7,1.9,0.3,2.5
				c-0.5,0.9-1.8,0.5-2.3,0c-0.1-0.1,0.8,1.4-0.4,2.2c-0.8,0.5-2.7-0.7-2.2-0.3c0.3,0.2,0.3,0.8-0.8,1.2c-0.8,0.2-4-2.8-4.4-3.1
				c-2-2-5.1-4.2-6.9-6.3l-0.1-0.1c-2.8-2.9-6.2-8-7.8-10.1c-2.3-2.8-3.8-5.1-3.8-7.3c0-2.3,15.6-20.8,15.6-20.8
				s-14.5-14.2-17.7-19.9c-3.9-6.9-4.2-18.9-1.3-25.6"/>
			<path class="st8" d="M93.9,266.3c0.4,0.4,3.6,3.4,4.4,3.1c1.1-0.3,1.1-0.9,0.8-1.2c-0.5-0.4,1.4,0.8,2.2,0.3
				c1.2-0.7,0.2-2.3,0.4-2.2c0.5,0.5,1.8,0.9,2.3,0c0.4-0.6,0.3-1.5-0.4-2.4c-0.7-0.9-1.2-1.5-1.3-1.7c0.4,0.3,0.9,0.7,1.6,1.2
				c1.1,0.9,2.4,1.4,3.1,0.6c0.7-0.7-0.1-2.1-0.7-2.8c-1.2-1.5-3.8-3.8-3.9-4.4c0.6,0.2,2.6,0,4.9,0.5c2.4,0.6,5,0.9,4.5-1.2
				c-0.4-2-2.3-1.4-4.3-1.8c-0.8-0.2-2.1-0.4-3.7-0.8l-1.6,3.2L93.9,266.3z"/>
			<g>
				<path class="st11" d="M207.5,198.7c0,0,0.1,2.9,1.1,3.7s2.2,1.2,2.2,1.2s1-1.2,1.4-1.2c0.3,0,1.2,0.1,1.4-0.1
					c0.1-0.2,0.2-0.8,0.2-1c0-0.3,1.1-2.4,0-3.6c-1.1-1.2-2.1-1.6-2.9-1.3S207.5,198.7,207.5,198.7z"/>
				
					<linearGradient id="SVGID_00000137810410722267265650000018280616848100307125_" gradientUnits="userSpaceOnUse" x1="209.8689" y1="200.6869" x2="213.2291" y2="199.1289">
					<stop  offset="0" style="stop-color:#E78A16"/>
					<stop  offset="0.438" style="stop-color:#E98D16"/>
					<stop  offset="0.7409" style="stop-color:#EE9516"/>
					<stop  offset="1" style="stop-color:#F6A316"/>
				</linearGradient>
				<circle style="fill:url(#SVGID_00000137810410722267265650000018280616848100307125_);" cx="211.4" cy="200" r="2.1"/>
				<circle class="st13" cx="212.3" cy="199.7" r="0.8"/>
			</g>
			<circle class="st14" cx="212.7" cy="199.6" r="0.2"/>
			<path class="st15" d="M216.6,191.1c-5-1.9-9.8-3.9-12.6,0"/>
			<path class="st15" d="M192,199.2c0.3,4.2-6.5,3.9-9,5.1c-3.5,1.7-2.7,3.8-6.6,4.7"/>
			<path class="st16" d="M90.2,247.9c-0.6,1.7-2.5,2.1-4.1,2.2"/>
			<path class="st7" d="M130.7,218.2c3.8,16.9-20.7,17-20.7,17.9c0,0.8,4.4,3.5,7.9,5.5c0,0,3.3,1.9,4.6,2.4
				c1.4,0.5,2.2,0.6,3.6,1.3c0.9,0.5,3.3,2.2,1.8,3.2c-0.7,0.5-1.8-0.2-2.7-0.5c0.6,0.4,1,1.2,1.1,1.7c0.3,1-0.7,1.6-1.4,1.6
				c-1.1-0.1-1.9-0.4-2.8-1.1c-0.4-0.3-1.3-1.1-1.4-0.9c-0.1,0.2,0.3,0.9,0.6,1.5c0.5,0.8,0.9,2.8,0.6,3c-0.4,0.4-1.7,0.3-3.6-1.7
				c-0.6-0.6-1.6-2.1-2.4-2.7c-0.6-0.4-1.7-0.5-1.9-0.3c0.9,3.9,0.6,7.7-1.9,5c-1.9-2-1-6.1-4.2-8.2l-0.5-0.6
				c-1.6-1.2-3.1-2.4-5-4.3c-1.7-1.8-0.6-3.2,0-4"/>
			<path class="st8" d="M126.1,245.3c-1-0.5-1.7-0.7-2.6-1c-3.5,4.3-8.2,3.8-13.2,4.7c0.6,1.8,0.8,3.7,1.9,4.9
				c2.5,2.7,2.8-1.1,1.9-5c0.2-0.2,1.3-0.1,1.9,0.3c0.9,0.6,1.9,2.1,2.4,2.7c1.9,2.1,3.1,2.2,3.6,1.7c0.3-0.2-0.1-2.2-0.6-3
				c-0.4-0.6-0.8-1.3-0.6-1.5s1,0.6,1.4,0.9c0.9,0.7,1.7,1,2.8,1.1c0.6,0.1,1.7-0.6,1.4-1.6c-0.2-0.5-0.5-1.3-1.1-1.7
				c0.8,0.3,2,1.1,2.7,0.5C129.4,247.5,127,245.8,126.1,245.3z"/>
			<path class="st17" d="M154.4,192.6c0,0-16.6,11.9-21.1,19.7c-1,1.6,4.8,17.1,5.7,19.7c0.6,1.7,9.7,18.2,9.7,18.2s2.7,3.8,3.7,5.6
				c0.8,1.4,1.8,7,3.5,6.9c1.7-0.3,0.3-2.3,0.1-3c-0.2-0.8-0.6-2.3-0.3-2.4c0.7-0.4,1.9,2.3,2.7,3.5c0.7,1,0.1,2.2,0.7,3.4
				c0.5,1,1.1,1.5,1.8,0.6c0.6-0.7,0.3-2.7-0.2-4.3c-0.6-1.7-2.3-3.6-1.9-3.9c0.5-0.3,2.4,1.5,3.2,2.7c0.7,1.1,0.1,3.2,2.3,2.8
				c0.5-1.4-0.1-3.4-0.9-4.9c-0.5-1-2.4-2.6-2.9-3c1.5,0,2-0.1,3.4,0.7c1.4,0.8,1.6,3.1,3.6,1.9c-0.2-1-1.6-3.6-2.5-4.1
				c-1-0.5-8.6-0.1-4.3-2.2c0.4-0.2,1.5-0.6,2.2-0.5c0.9,0.2,1.8-0.7,1.8-1.2c-0.1-1.2-1.3-1.3-2.4-0.9c-1.1,0.4-3.4,1.4-4.9,0.1
				c-1.6-1.4-5.4-7.8-5.4-7.8s-0.5-10.3,1.7-18.8c0.9-3.4,2.5-3.5,4.2-3.9c2.8-0.6,16.7-1.5,20.4-11"/>
			<path class="st8" d="M163.7,254.9c1.4,0.8,1.6,3.1,3.6,1.9c-0.2-1-1.6-3.6-2.5-4.1c-0.5-0.3-2.5-0.3-4-0.5c0.3,0.7,0.5,1.3,0.5,2
				C162.2,254.2,162.7,254.3,163.7,254.9z"/>
			<path class="st8" d="M160.5,250.5c0.4-0.2,1.5-0.6,2.2-0.5c0.9,0.2,1.8-0.7,1.8-1.2c-0.1-1.2-1.3-1.3-2.4-0.9
				c-0.8,0.3-2.2,0.9-3.5,0.7c0.4,0.7,0.9,1.4,1.4,2.1C160.2,250.7,160.3,250.6,160.5,250.5z"/>
			<path class="st8" d="M158.3,260.7c0.7,1,0.1,2.2,0.7,3.4c0.5,1,1.1,1.5,1.8,0.6c0.6-0.7,0.3-2.7-0.2-4.3c-0.4-1.1-1.2-2.2-1.6-3
				c-0.7,0.3-1.4,0.5-2.2,0.6C157.3,258.8,157.9,260,158.3,260.7z"/>
			<path class="st8" d="M159.8,257c0.7,0.6,1.6,1.5,2.1,2.3c0.7,1.1,0.1,3.2,2.3,2.8c0.5-1.4-0.1-3.4-0.9-4.9
				c-0.3-0.6-1.2-1.5-1.9-2.1c-0.1,0.4-0.2,0.8-0.5,1.1C160.5,256.5,160.2,256.8,159.8,257z"/>
			<path class="st8" d="M155.9,262.6c1.7-0.3,0.3-2.3,0.1-3c-0.1-0.4-0.3-1-0.3-1.5c-0.8,0.1-1.6,0.1-2.3,0.2
				C153.9,260.3,154.7,262.7,155.9,262.6z"/>
			<path class="st8" d="M192,183.3c0.7-1,4.5,4.3,5.9,6.5c1.8,2.9,1.8,4.3-1.7,4.8c0-0.7-0.1-1.5,0.1-2.1c-1.1-0.4-0.8-0.8-1.1-1.5
				c-0.1-0.2,0.1-0.7,0-1c-0.1-0.3-0.4-1.5-0.5-1.8C194.1,187.1,191.4,184.3,192,183.3z"/>
			<path class="st7" d="M204.3,234.7c1.9-0.5,5.9,2.5,6.3,3.7c0.4,1.4-0.6,1.1-1.3,0.4c-0.5-0.5-1-1-1.6-1.4"/>
			<path class="st8" d="M194.4,237.6c0.8,0.6,1.5,1.2,2,1.8c0.7,0.9,0.4,2.7,1.3,3.3c1.7,1.2,1.6-1.1,1.1-2
				c-0.5-0.8-1.1-2.6-0.6-3.5c0.2-0.3,0.4-0.5,0.8-0.7C197.4,236.5,195.9,237.1,194.4,237.6z"/>
			<path class="st8" d="M159.3,215.3l1.1-0.1C160,215.2,159.6,215.2,159.3,215.3z"/>
			<path class="st8" d="M208,238.6c-0.6-1-0.5-2.5-1.7-3.2c-0.5-0.3-1.2-0.3-1.7-0.6c-0.2-0.1-1-0.3-1.9-0.6c-0.5,0.6-1.3,1.1-1.2,2
				c1.5,0,3,0.4,3.7,0.8c1.2,0.8,1.2,2.3,2.3,3.1c0.4,0.3,1.3,0.7,1.5-0.1C209,239.5,208.2,239,208,238.6z"/>
			<path class="st8" d="M204.3,234.7c1.9-0.5,5.9,2.5,6.3,3.7c0.4,1.4-0.6,1.1-1.3,0.4c-0.5-0.5-1-1-1.6-1.4"/>
			<path class="st15" d="M202.2,191.4c-0.2-1.7-0.5-3.2-1.1-4.8c-0.5-1.4-1.5-2.5-2.3-3.8"/>
			<path class="st15" d="M191.5,185c-0.1,0-0.1,0-0.1,0.1c0.3,1.2,1.7,2.2,2.4,3.2c0.8,1.1,0.3,2.3,0.6,3.5c0.2,0.8,0.6,0.8,1,1.3"
				/>
			<path class="st15" d="M192.8,197.9c-1.3-0.9-3.4-2.7-4-4.1"/>
			<g>
				
					<radialGradient id="SVGID_00000037692529413836640890000003230697307682858643_" cx="69.8152" cy="60.1231" r="12.4787" gradientUnits="userSpaceOnUse">
					<stop  offset="0" style="stop-color:#8F925B"/>
					<stop  offset="1.322751e-02" style="stop-color:#72A255"/>
					<stop  offset="0.2341" style="stop-color:#74A458"/>
					<stop  offset="0.3872" style="stop-color:#7CA961"/>
					<stop  offset="0.5196" style="stop-color:#89B170"/>
					<stop  offset="0.6404" style="stop-color:#9BBD86"/>
					<stop  offset="0.7534" style="stop-color:#B2CCA2"/>
					<stop  offset="0.8604" style="stop-color:#CFDFC5"/>
					<stop  offset="0.9609" style="stop-color:#F0F5ED"/>
					<stop  offset="1" style="stop-color:#FFFFFF"/>
				</radialGradient>
				<path style="fill:url(#SVGID_00000037692529413836640890000003230697307682858643_);" d="M76.2,69.4C70,71.1,64,75.7,59.1,67.8
					c-3.7-5.9-2.4-14.4,4.1-17.8c5.3-2.7,14.5-3.2,18.1,2.4c2.9,4.4,0.9,15.5-4.3,17.1"/>
			</g>
			<g>
				
					<radialGradient id="SVGID_00000045612741212930655760000015271514543517419699_" cx="76.9409" cy="77.673" r="1.8777" gradientUnits="userSpaceOnUse">
					<stop  offset="0" style="stop-color:#8F925B"/>
					<stop  offset="1.322751e-02" style="stop-color:#72A255"/>
					<stop  offset="0.2341" style="stop-color:#74A458"/>
					<stop  offset="0.3872" style="stop-color:#7CA961"/>
					<stop  offset="0.5196" style="stop-color:#89B170"/>
					<stop  offset="0.6404" style="stop-color:#9BBD86"/>
					<stop  offset="0.7534" style="stop-color:#B2CCA2"/>
					<stop  offset="0.8604" style="stop-color:#CFDFC5"/>
					<stop  offset="0.9609" style="stop-color:#F0F5ED"/>
					<stop  offset="1" style="stop-color:#FFFFFF"/>
				</radialGradient>
				<circle style="fill:url(#SVGID_00000045612741212930655760000015271514543517419699_);" cx="76.9" cy="77.7" r="1.9"/>
			</g>
			<g>
				
					<radialGradient id="SVGID_00000183248030048676475730000015264162873265306002_" cx="81.0719" cy="73.9176" r="1.8777" gradientUnits="userSpaceOnUse">
					<stop  offset="0" style="stop-color:#8F925B"/>
					<stop  offset="1.322751e-02" style="stop-color:#72A255"/>
					<stop  offset="0.2341" style="stop-color:#74A458"/>
					<stop  offset="0.3872" style="stop-color:#7CA961"/>
					<stop  offset="0.5196" style="stop-color:#89B170"/>
					<stop  offset="0.6404" style="stop-color:#9BBD86"/>
					<stop  offset="0.7534" style="stop-color:#B2CCA2"/>
					<stop  offset="0.8604" style="stop-color:#CFDFC5"/>
					<stop  offset="0.9609" style="stop-color:#F0F5ED"/>
					<stop  offset="1" style="stop-color:#FFFFFF"/>
				</radialGradient>
				<circle style="fill:url(#SVGID_00000183248030048676475730000015264162873265306002_);" cx="81.1" cy="73.9" r="1.9"/>
			</g>
			<g>
				
					<radialGradient id="SVGID_00000152971253043253089640000007709373402137756333_" cx="87.8317" cy="100.9567" r="1.8777" gradientUnits="userSpaceOnUse">
					<stop  offset="0" style="stop-color:#8F925B"/>
					<stop  offset="1.322751e-02" style="stop-color:#72A255"/>
					<stop  offset="0.2341" style="stop-color:#74A458"/>
					<stop  offset="0.3872" style="stop-color:#7CA961"/>
					<stop  offset="0.5196" style="stop-color:#89B170"/>
					<stop  offset="0.6404" style="stop-color:#9BBD86"/>
					<stop  offset="0.7534" style="stop-color:#B2CCA2"/>
					<stop  offset="0.8604" style="stop-color:#CFDFC5"/>
					<stop  offset="0.9609" style="stop-color:#F0F5ED"/>
					<stop  offset="1" style="stop-color:#FFFFFF"/>
				</radialGradient>
				<circle style="fill:url(#SVGID_00000152971253043253089640000007709373402137756333_);" cx="87.8" cy="101" r="1.9"/>
			</g>
			<g>
				
					<radialGradient id="SVGID_00000098210718507370927580000009048127404431717260_" cx="71.6833" cy="88.1883" r="1.8777" gradientUnits="userSpaceOnUse">
					<stop  offset="0" style="stop-color:#8F925B"/>
					<stop  offset="1.322751e-02" style="stop-color:#72A255"/>
					<stop  offset="0.2341" style="stop-color:#74A458"/>
					<stop  offset="0.3872" style="stop-color:#7CA961"/>
					<stop  offset="0.5196" style="stop-color:#89B170"/>
					<stop  offset="0.6404" style="stop-color:#9BBD86"/>
					<stop  offset="0.7534" style="stop-color:#B2CCA2"/>
					<stop  offset="0.8604" style="stop-color:#CFDFC5"/>
					<stop  offset="0.9609" style="stop-color:#F0F5ED"/>
					<stop  offset="1" style="stop-color:#FFFFFF"/>
				</radialGradient>
				<circle style="fill:url(#SVGID_00000098210718507370927580000009048127404431717260_);" cx="71.7" cy="88.2" r="1.9"/>
			</g>
			<g>
				
					<radialGradient id="SVGID_00000149339468061251750370000005623130484012247707_" cx="106.9844" cy="52.1361" r="1.8777" gradientUnits="userSpaceOnUse">
					<stop  offset="0" style="stop-color:#8F925B"/>
					<stop  offset="1.322751e-02" style="stop-color:#72A255"/>
					<stop  offset="0.2341" style="stop-color:#74A458"/>
					<stop  offset="0.3872" style="stop-color:#7CA961"/>
					<stop  offset="0.5196" style="stop-color:#89B170"/>
					<stop  offset="0.6404" style="stop-color:#9BBD86"/>
					<stop  offset="0.7534" style="stop-color:#B2CCA2"/>
					<stop  offset="0.8604" style="stop-color:#CFDFC5"/>
					<stop  offset="0.9609" style="stop-color:#F0F5ED"/>
					<stop  offset="1" style="stop-color:#FFFFFF"/>
				</radialGradient>
				<circle style="fill:url(#SVGID_00000149339468061251750370000005623130484012247707_);" cx="107" cy="52.1" r="1.9"/>
			</g>
			<g>
				
					<radialGradient id="SVGID_00000140720055286091463990000010550656526714005643_" cx="115.6219" cy="64.9046" r="1.8777" gradientUnits="userSpaceOnUse">
					<stop  offset="0" style="stop-color:#8F925B"/>
					<stop  offset="1.322751e-02" style="stop-color:#72A255"/>
					<stop  offset="0.2341" style="stop-color:#74A458"/>
					<stop  offset="0.3872" style="stop-color:#7CA961"/>
					<stop  offset="0.5196" style="stop-color:#89B170"/>
					<stop  offset="0.6404" style="stop-color:#9BBD86"/>
					<stop  offset="0.7534" style="stop-color:#B2CCA2"/>
					<stop  offset="0.8604" style="stop-color:#CFDFC5"/>
					<stop  offset="0.9609" style="stop-color:#F0F5ED"/>
					<stop  offset="1" style="stop-color:#FFFFFF"/>
				</radialGradient>
				<circle style="fill:url(#SVGID_00000140720055286091463990000010550656526714005643_);" cx="115.6" cy="64.9" r="1.9"/>
			</g>
			<g>
				
					<radialGradient id="SVGID_00000134238652002435873100000000994222129781669785_" cx="52.9062" cy="64.9046" r="1.8777" gradientUnits="userSpaceOnUse">
					<stop  offset="0" style="stop-color:#8F925B"/>
					<stop  offset="1.322751e-02" style="stop-color:#72A255"/>
					<stop  offset="0.2341" style="stop-color:#74A458"/>
					<stop  offset="0.3872" style="stop-color:#7CA961"/>
					<stop  offset="0.5196" style="stop-color:#89B170"/>
					<stop  offset="0.6404" style="stop-color:#9BBD86"/>
					<stop  offset="0.7534" style="stop-color:#B2CCA2"/>
					<stop  offset="0.8604" style="stop-color:#CFDFC5"/>
					<stop  offset="0.9609" style="stop-color:#F0F5ED"/>
					<stop  offset="1" style="stop-color:#FFFFFF"/>
				</radialGradient>
				<circle style="fill:url(#SVGID_00000134238652002435873100000000994222129781669785_);" cx="52.9" cy="64.9" r="1.9"/>
			</g>
			<g>
				
					<radialGradient id="SVGID_00000108298048734105714600000003441848173408496543_" cx="49.1507" cy="72.791" r="1.8777" gradientUnits="userSpaceOnUse">
					<stop  offset="0" style="stop-color:#8F925B"/>
					<stop  offset="1.322751e-02" style="stop-color:#72A255"/>
					<stop  offset="0.2341" style="stop-color:#74A458"/>
					<stop  offset="0.3872" style="stop-color:#7CA961"/>
					<stop  offset="0.5196" style="stop-color:#89B170"/>
					<stop  offset="0.6404" style="stop-color:#9BBD86"/>
					<stop  offset="0.7534" style="stop-color:#B2CCA2"/>
					<stop  offset="0.8604" style="stop-color:#CFDFC5"/>
					<stop  offset="0.9609" style="stop-color:#F0F5ED"/>
					<stop  offset="1" style="stop-color:#FFFFFF"/>
				</radialGradient>
				<circle style="fill:url(#SVGID_00000108298048734105714600000003441848173408496543_);" cx="49.2" cy="72.8" r="1.9"/>
			</g>
			<g>
				
					<radialGradient id="SVGID_00000131352552700159916690000014195280565065299365_" cx="59.666" cy="76.5464" r="1.8777" gradientUnits="userSpaceOnUse">
					<stop  offset="0" style="stop-color:#8F925B"/>
					<stop  offset="1.322751e-02" style="stop-color:#72A255"/>
					<stop  offset="0.2341" style="stop-color:#74A458"/>
					<stop  offset="0.3872" style="stop-color:#7CA961"/>
					<stop  offset="0.5196" style="stop-color:#89B170"/>
					<stop  offset="0.6404" style="stop-color:#9BBD86"/>
					<stop  offset="0.7534" style="stop-color:#B2CCA2"/>
					<stop  offset="0.8604" style="stop-color:#CFDFC5"/>
					<stop  offset="0.9609" style="stop-color:#F0F5ED"/>
					<stop  offset="1" style="stop-color:#FFFFFF"/>
				</radialGradient>
				<circle style="fill:url(#SVGID_00000131352552700159916690000014195280565065299365_);" cx="59.7" cy="76.5" r="1.9"/>
			</g>
			<g>
				
					<radialGradient id="SVGID_00000013182708640413091760000013503296492487622055_" cx="103.98" cy="89.3149" r="4.0408" gradientUnits="userSpaceOnUse">
					<stop  offset="0" style="stop-color:#8F925B"/>
					<stop  offset="1.322751e-02" style="stop-color:#72A255"/>
					<stop  offset="0.2341" style="stop-color:#74A458"/>
					<stop  offset="0.3872" style="stop-color:#7CA961"/>
					<stop  offset="0.5196" style="stop-color:#89B170"/>
					<stop  offset="0.6404" style="stop-color:#9BBD86"/>
					<stop  offset="0.7534" style="stop-color:#B2CCA2"/>
					<stop  offset="0.8604" style="stop-color:#CFDFC5"/>
					<stop  offset="0.9609" style="stop-color:#F0F5ED"/>
					<stop  offset="1" style="stop-color:#FFFFFF"/>
				</radialGradient>
				<circle style="fill:url(#SVGID_00000013182708640413091760000013503296492487622055_);" cx="104" cy="89.3" r="4"/>
			</g>
			<g>
				
					<radialGradient id="SVGID_00000013180814433645181860000014131201352133365434_" cx="105.4822" cy="66.0312" r="4.0408" gradientUnits="userSpaceOnUse">
					<stop  offset="0" style="stop-color:#8F925B"/>
					<stop  offset="1.322751e-02" style="stop-color:#72A255"/>
					<stop  offset="0.2341" style="stop-color:#74A458"/>
					<stop  offset="0.3872" style="stop-color:#7CA961"/>
					<stop  offset="0.5196" style="stop-color:#89B170"/>
					<stop  offset="0.6404" style="stop-color:#9BBD86"/>
					<stop  offset="0.7534" style="stop-color:#B2CCA2"/>
					<stop  offset="0.8604" style="stop-color:#CFDFC5"/>
					<stop  offset="0.9609" style="stop-color:#F0F5ED"/>
					<stop  offset="1" style="stop-color:#FFFFFF"/>
				</radialGradient>
				<circle style="fill:url(#SVGID_00000013180814433645181860000014131201352133365434_);" cx="105.5" cy="66" r="4"/>
			</g>
			<g>
				
					<radialGradient id="SVGID_00000038388043986664307090000006219850056875284864_" cx="68.3034" cy="99.4546" r="1.8777" gradientUnits="userSpaceOnUse">
					<stop  offset="0" style="stop-color:#8F925B"/>
					<stop  offset="1.322751e-02" style="stop-color:#72A255"/>
					<stop  offset="0.2341" style="stop-color:#74A458"/>
					<stop  offset="0.3872" style="stop-color:#7CA961"/>
					<stop  offset="0.5196" style="stop-color:#89B170"/>
					<stop  offset="0.6404" style="stop-color:#9BBD86"/>
					<stop  offset="0.7534" style="stop-color:#B2CCA2"/>
					<stop  offset="0.8604" style="stop-color:#CFDFC5"/>
					<stop  offset="0.9609" style="stop-color:#F0F5ED"/>
					<stop  offset="1" style="stop-color:#FFFFFF"/>
				</radialGradient>
				<circle style="fill:url(#SVGID_00000038388043986664307090000006219850056875284864_);" cx="68.3" cy="99.5" r="1.9"/>
			</g>
			<g>
				
					<radialGradient id="SVGID_00000164509785188990797010000005330958781515185566_" cx="77.3165" cy="87.8127" r="1.8777" gradientUnits="userSpaceOnUse">
					<stop  offset="0" style="stop-color:#8F925B"/>
					<stop  offset="1.322751e-02" style="stop-color:#72A255"/>
					<stop  offset="0.2341" style="stop-color:#74A458"/>
					<stop  offset="0.3872" style="stop-color:#7CA961"/>
					<stop  offset="0.5196" style="stop-color:#89B170"/>
					<stop  offset="0.6404" style="stop-color:#9BBD86"/>
					<stop  offset="0.7534" style="stop-color:#B2CCA2"/>
					<stop  offset="0.8604" style="stop-color:#CFDFC5"/>
					<stop  offset="0.9609" style="stop-color:#F0F5ED"/>
					<stop  offset="1" style="stop-color:#FFFFFF"/>
				</radialGradient>
				<circle style="fill:url(#SVGID_00000164509785188990797010000005330958781515185566_);" cx="77.3" cy="87.8" r="1.9"/>
			</g>
			<g>
				
					<radialGradient id="SVGID_00000078760288166684256740000007812613215632238510_" cx="81.0719" cy="81.0529" r="1.8777" gradientUnits="userSpaceOnUse">
					<stop  offset="0" style="stop-color:#8F925B"/>
					<stop  offset="1.322751e-02" style="stop-color:#72A255"/>
					<stop  offset="0.2341" style="stop-color:#74A458"/>
					<stop  offset="0.3872" style="stop-color:#7CA961"/>
					<stop  offset="0.5196" style="stop-color:#89B170"/>
					<stop  offset="0.6404" style="stop-color:#9BBD86"/>
					<stop  offset="0.7534" style="stop-color:#B2CCA2"/>
					<stop  offset="0.8604" style="stop-color:#CFDFC5"/>
					<stop  offset="0.9609" style="stop-color:#F0F5ED"/>
					<stop  offset="1" style="stop-color:#FFFFFF"/>
				</radialGradient>
				<circle style="fill:url(#SVGID_00000078760288166684256740000007812613215632238510_);" cx="81.1" cy="81.1" r="1.9"/>
			</g>
			<g>
				
					<radialGradient id="SVGID_00000161630633133710715940000004301762385598095232_" cx="96.0936" cy="67.1578" r="1.8777" gradientUnits="userSpaceOnUse">
					<stop  offset="0" style="stop-color:#8F925B"/>
					<stop  offset="1.322751e-02" style="stop-color:#72A255"/>
					<stop  offset="0.2341" style="stop-color:#74A458"/>
					<stop  offset="0.3872" style="stop-color:#7CA961"/>
					<stop  offset="0.5196" style="stop-color:#89B170"/>
					<stop  offset="0.6404" style="stop-color:#9BBD86"/>
					<stop  offset="0.7534" style="stop-color:#B2CCA2"/>
					<stop  offset="0.8604" style="stop-color:#CFDFC5"/>
					<stop  offset="0.9609" style="stop-color:#F0F5ED"/>
					<stop  offset="1" style="stop-color:#FFFFFF"/>
				</radialGradient>
				<circle style="fill:url(#SVGID_00000161630633133710715940000004301762385598095232_);" cx="96.1" cy="67.2" r="1.9"/>
			</g>
			<path class="st34" d="M99.5,268.7c-0.2-0.1-0.3-0.4-0.5-0.5c-0.3-0.3-0.5-0.7-0.8-1c-0.5-0.6-1.1-1-1.6-1.6
				c-0.2-0.2-0.4-0.4-0.7-0.6"/>
			<path class="st34" d="M102.4,267.4c-1.3-1.1-2.3-2.5-3.7-3.5c-0.2-0.2-0.5-0.3-0.7-0.5"/>
			<path class="st34" d="M105,265.2c-0.3-0.1-0.5-0.6-0.7-0.8c-0.3-0.3-0.5-0.5-0.8-0.8c-0.3-0.4-0.8-0.8-1.2-1.2
				c-0.7-0.6-1.4-1-2.1-1.6"/>
			<path class="st35" d="M223.7,204.8c0,0-0.2,0.6-0.2,1.2s0,0.8,0.5,1.2c0.5,0.4,0.8,0.5,0.7,1c-0.1,0.5-0.2,1.5-0.2,1.5
				s1.9-2.1,1.5-2.8C225.7,206.3,223.7,204.8,223.7,204.8z"/>
			<path class="st34" d="M121.9,250.6c-0.7-0.8-2-3.1-3.1-3.2"/>
			<path class="st34" d="M127,249c-0.9-0.1-2.1-1.1-3-1.6c-1.1-0.5-2.2-1-3.1-1.7"/>
			<g>
				
					<radialGradient id="SVGID_00000181046793152329366850000002749217809764062904_" cx="79.9453" cy="70.1622" r="42.7146" gradientUnits="userSpaceOnUse">
					<stop  offset="0" style="stop-color:#B8CAA2"/>
					<stop  offset="0.2532" style="stop-color:#D0DCC2"/>
					<stop  offset="0.5657" style="stop-color:#EAEFE3"/>
					<stop  offset="0.8259" style="stop-color:#F9FBF8"/>
					<stop  offset="1" style="stop-color:#FFFFFF"/>
				</radialGradient>
				<path style="fill:url(#SVGID_00000181046793152329366850000002749217809764062904_);" d="M105.5,46.1
					c-8.3-13.5-32.9-15.1-50.3-7.9C29.6,48.8,32.8,64.9,35.3,76.9c2.5,12.4,21.3,1.7,30.1,3.7c15.6,3.5,0.4,12.6-1.8,19.4
					c-1.3,4.2-11.3,31.2-7.7,33.2c8.2,4.6,33.9-25.8,39.1-29.7C102.5,98,116.3,63.9,105.5,46.1z"/>
			</g>
			<path class="st37" d="M82.2,237.5c-1.4,1.7-5,5.4-3.5,7.7"/>
			<path class="st38" d="M131.7,214.2c-2.4,0-5.4-0.2-7.2,0.5"/>
			<path class="st38" d="M73.4,196.8c1.6,3.1,4.3,5.2,6,8.1c1.1,1.7,2.7,6.1,4.8,6.3c0.2,0.8,0.6,1.5,1.2,2"/>
		</g>
		<path class="st39" d="M203.2,182.1c0,0-0.8-6.5-2.8-6.3s-4.5,2-4.5,2"/>
		<path class="st40" d="M56.9,149.7c2.1,0.2,4.9-1.4,7-1.9c1.8-0.4,6-0.5,7.1-2"/>
		<path class="st40" d="M60.5,161.2c2.8-1.1,5.3-1.6,7.8-3.4c2.2-1.6,4.4-3.2,6.1-5.3"/>
		<path class="st40" d="M69.8,170.4c-0.1,0.1-0.1,0.1-0.2,0.2"/>
		<path class="st40" d="M68.4,171.1c2.5-0.9,4.2-3.4,5.8-5.4"/>
		<path class="st40" d="M76.9,162.4c0.9-1.1,1.7-2.8,2.2-4.1"/>
		<path class="st40" d="M74,138c-4.9,0-12.5,1-17.1-1.5"/>
		<path class="st40" d="M59.8,124.4c0.8,0.6,1.9,1,2.9,1.4"/>
		<path class="st40" d="M68.1,107.7c1.7,0.8,3,2.6,4.8,3.6"/>
		<path class="st40" d="M82.5,117.8c-3-0.7-5.5-2.3-8.1-3.6"/>
		<path class="st40" d="M91.5,105.9c-2.8-1.1-5.7-2.1-8.3-3.6"/>
		<path class="st40" d="M101.5,93c-1.6-2.2-5.8-2.2-7.6-3.9"/>
		<path class="st40" d="M107.5,73.3c-2.6,1.9-6.3-0.7-9,0.5"/>
		<path class="st40" d="M56.7,57.5c-3.4,4.9-0.4,9.2,3.1,12.9"/>
	</g>
</g>
</svg>
