<?xml version="1.0" encoding="utf-8"?>
<!-- Generator: Adobe Illustrator 26.0.1, SVG Export Plug-In . SVG Version: 6.00 Build 0)  -->
<svg version="1.1" id="Capa_1" xmlns="http://www.w3.org/2000/svg" xmlns:xlink="http://www.w3.org/1999/xlink" x="0px" y="0px"
	 viewBox="0 0 300 300" style="enable-background:new 0 0 300 300;" xml:space="preserve">
<style type="text/css">
	.st0{fill:url(#SVGID_1_);}
	.st1{fill:#1D1D1B;stroke:#3C3C3B;stroke-width:0.5;stroke-miterlimit:10;}
	.st2{fill:none;stroke:#FFFFFF;stroke-width:0.5;stroke-linecap:round;stroke-miterlimit:10;}
	.st3{fill:url(#SVGID_00000010996862771908394360000009717005693463242400_);}
	.st4{fill:none;stroke:#3C3C3B;stroke-width:0.5;stroke-miterlimit:10;}
	.st5{fill:#3C3C3B;stroke:#3C3C3B;stroke-width:0.5;stroke-miterlimit:10;}
	.st6{fill:#1E1E1C;stroke:#3C3C3B;stroke-width:0.5;stroke-miterlimit:10;}
	.st7{fill:url(#SVGID_00000093889746154441398460000005511650883183605644_);}
	.st8{fill:#1D1D1B;}
	.st9{fill:#FFFFFF;stroke:#3C3C3B;stroke-width:0.5;stroke-linecap:round;stroke-miterlimit:10;}
	.st10{fill:#3C3C3B;}
	.st11{clip-path:url(#XMLID_00000040557755730948774300000010452342585582145968_);fill:#3C3C3B;}
	.st12{fill:none;}
	.st13{fill:none;stroke:#3C3C3B;stroke-width:0.5;stroke-linecap:round;stroke-miterlimit:10;}
	.st14{fill:url(#SVGID_00000124160622295359583890000011785602219455173306_);}
	.st15{fill:#FFFFFF;stroke:#3C3C3B;stroke-width:0.5;stroke-linecap:round;stroke-linejoin:round;stroke-miterlimit:10;}
	.st16{fill:none;stroke:#3C3C3B;stroke-width:0.5;stroke-linecap:round;stroke-linejoin:round;stroke-miterlimit:10;}
	.st17{fill:url(#SVGID_00000165217791402072056600000008083573031550332562_);}
	.st18{fill:url(#SVGID_00000005971793853039531460000008566818699178603180_);}
	.st19{fill:url(#SVGID_00000142855268852477910310000001537396890516995745_);}
	.st20{fill:url(#SVGID_00000006702250758812108260000006651330429547392944_);}
	.st21{fill:url(#SVGID_00000022561358228286923970000003142598557024025006_);}
	.st22{fill:url(#SVGID_00000091701510237225820670000016538931910681088155_);}
	.st23{fill:url(#SVGID_00000118382068480266385890000008224724460331799694_);}
	.st24{fill:url(#SVGID_00000049186575758118084890000014608448326160927155_);}
	.st25{fill:url(#SVGID_00000139982454080660271750000015907739974075505284_);}
	.st26{fill:url(#SVGID_00000128449344691936118060000012011722775434155413_);}
	.st27{fill:#1E1E1C;}
</style>
<g>
	<g>
		
			<radialGradient id="SVGID_1_" cx="1422.7085" cy="242.3826" r="85.5585" gradientTransform="matrix(1.6973 3.042131e-02 -3.156252e-02 0.6107 -2273.1079 51.0753)" gradientUnits="userSpaceOnUse">
			<stop  offset="0" style="stop-color:#72A255"/>
			<stop  offset="4.137310e-02" style="stop-color:#81AC67"/>
			<stop  offset="0.1619" style="stop-color:#A7C595"/>
			<stop  offset="0.2827" style="stop-color:#C7DABB"/>
			<stop  offset="0.4019" style="stop-color:#DFEAD9"/>
			<stop  offset="0.519" style="stop-color:#F1F6EE"/>
			<stop  offset="0.633" style="stop-color:#FBFDFB"/>
			<stop  offset="0.7405" style="stop-color:#FFFFFF"/>
		</radialGradient>
		<ellipse class="st0" cx="135.2" cy="242.6" rx="116.4" ry="33"/>
	</g>
	<g>
		<g>
			<path class="st1" d="M250.3,83.3c-0.1,0.9-2-0.1-2.5,0c-0.6,0-0.7,0-0.7,0.7c0.1,0.7,0.3,0.5,0.7,0.9c0.3,0.3,0.6,0.5,0.7,0.9
				c0.1,0.4-0.2,1.1,0,1.5c0.5,0.8,1.4-0.5,1.7-1C250.9,85.5,251.3,84.1,250.3,83.3z"/>
			<path class="st2" d="M246.4,94.7c1.8,4.3,1.2,9.5-2,13.2"/>
			<path class="st2" d="M248.6,85.3c-2.1-0.5-2.8-2.4-4-3.9"/>
			<g>
				
					<radialGradient id="SVGID_00000046320455633834680860000007227204920997336760_" cx="245.5109" cy="120.9036" r="3.0811" gradientUnits="userSpaceOnUse">
					<stop  offset="0" style="stop-color:#8F925B"/>
					<stop  offset="1.322751e-02" style="stop-color:#72A255"/>
					<stop  offset="0.2341" style="stop-color:#74A458"/>
					<stop  offset="0.3872" style="stop-color:#7CA961"/>
					<stop  offset="0.5196" style="stop-color:#89B170"/>
					<stop  offset="0.6404" style="stop-color:#9BBD86"/>
					<stop  offset="0.7534" style="stop-color:#B2CCA2"/>
					<stop  offset="0.8604" style="stop-color:#CFDFC5"/>
					<stop  offset="0.9609" style="stop-color:#F0F5ED"/>
					<stop  offset="1" style="stop-color:#FFFFFF"/>
				</radialGradient>
				<circle style="fill:url(#SVGID_00000046320455633834680860000007227204920997336760_);" cx="245.5" cy="120.9" r="3.1"/>
			</g>
			<g>
				<path class="st4" d="M239.9,60.3c-0.1-2.7-0.2-5.4-1.1-7.5c-2.5-6.4-9.8-11.6-14.3-13.8c-4-2-16.2-3.5-25.3,0.3
					c-14.3,6-23.9,13.9-30.1,17.2c-6.2,3.3-35.2,12.2-49.7,22.9c-14.4,10.7-32.2,27.6-38.7,47.3c-6.4,19.5-11,37.5-7.9,49.2
					c4.2,16,11.9,31.4,17,35.9c4.5,3.9,36.7,25.5,44.9,24.8s38.9-45.2,39.3-49.3c0.3-3.7,10.2-41.6,12.8-52.3"/>
				<path class="st5" d="M242.3,72.7c-13.6,3.4-24.4,9.8-30,23.7c6.4-2,17.6-5.7,19.2-5.7c2.2,0,10.8,2.7,10.8,2.7s8.2-6.5,8.5-8.5
					C251.2,83.1,245.8,77.5,242.3,72.7z"/>
				<path class="st4" d="M239.9,60.3c-11.9-9-30.4-3.5-34.3,4.2c-15,22.5-28.9,45.3-18.9,70.2"/>
				<path class="st4" d="M250.6,83.9c-0.2,0.1-8.8-11.9-9-12.1c-1.8-2.9-1.7-7.3-1.8-11.5"/>
				<path class="st5" d="M244.7,76.7c0,0-2.4,0.1-2.4,1.5c0,1.5,0.5,2.3,1.1,3.4c0.7,1.1,1.8,2.2,1.7,4.2c-0.1,0.7-4.3,5.6-4.5,7
					c-0.1,0.6,1.8,0.6,1.8,0.6s8.8-6.2,8.5-8.5C250.6,83,244.7,76.7,244.7,76.7z"/>
				<path class="st5" d="M220.8,74c-2.5-3.2-1.7-4.7,0.2-8.5c1.2-2.4,3.3-8.1,6.5-7.6c0,0,8.8,8.9,10.8,11.7
					c2.7,3.6,3.4,4.2,0.2,5.7C233.8,77.4,224.1,78.2,220.8,74z"/>
				<g>
					<path class="st6" d="M221.1,66.2c0,0,0.3,5.4,2.1,7c1.8,1.5,4.1,2.2,4.1,2.2s1.9-2.2,2.5-2.2s2.3,0.2,2.6-0.2
						c0.3-0.4,0.4-1.5,0.4-1.9s2-4.5-0.1-6.7c-2.1-2.2-3.9-3-5.4-2.4C225.9,62.6,221.1,66.2,221.1,66.2z"/>
					
						<linearGradient id="SVGID_00000114763506273815271990000012606233321975330446_" gradientUnits="userSpaceOnUse" x1="224.466" y1="68.6759" x2="232.2349" y2="68.6759">
						<stop  offset="0" style="stop-color:#E78A16"/>
						<stop  offset="0.438" style="stop-color:#E98D16"/>
						<stop  offset="0.7409" style="stop-color:#EE9516"/>
						<stop  offset="1" style="stop-color:#F6A316"/>
					</linearGradient>
					<circle style="fill:url(#SVGID_00000114763506273815271990000012606233321975330446_);" cx="228.4" cy="68.7" r="3.9"/>
					<circle class="st8" cx="230" cy="68.1" r="1.5"/>
				</g>
				<path class="st9" d="M197.3,77.4c3.8-6.6-1.1-6.7-5.2-13c-2.5-3.9-5.9-8.5-5.9-13.4c-0.1-5.7,3.7-9.1,7.4-12.7
					c2.4-2.4,5.5-5,8.2-7.1c1.8-1.4,3-3.7,4.2-5.5c5.1,4.3,10.6,11.4,11.8,18.3c1.1,6.5-3.5,12.1-2.4,18.3c0.4,2.4,1.1,3.8,3.2,5.5"
					/>
				<path class="st10" d="M208.2,67.5c0.7-1-1.2-2-2.2-3c-1-1-0.6-2.9-1-4.2c-1.5-5.7,6.5-1.7,6.3-6.6c-0.1-1.6-1.4-4.5-2-6
					c-0.5-1.2-2.4-3.9-3.8-3.9c-1.9,0-5.9,4.2-7.1,5.6c-2.2,2.5-1.4,4.4,0.9,6.8c1.2,1.3,2.9,2.7,3.7,4.3c0.6,1.1,0.4,2.6,0.7,3.8
					C204,65.6,206.6,69.8,208.2,67.5z"/>
				<path class="st5" d="M218.9,119.3c0.1-0.4,0.8-1.2,0.6-1.6c-0.1-0.3-1.3-0.5-1.5-0.5c-0.6,0.1-0.7,0.8-0.4,1.3
					C217.8,119,218.5,119.2,218.9,119.3"/>
				<path class="st10" d="M177.2,229.1c1.3,0.5,2.6,1.1,3.8,1.6c2.3,1,4.5,1.7,5.5,2.6c3.3,3,1.1,4.8-0.7,4.5
					c-1.8-0.3-12.4-4.3-14.2-2.1c-1.3,1.6-1.7,2.6,0.8,4.1s6,2.8,8.4,4.2c2,1.2,4.7,3.3,3.4,5.2c-1.3,1.9-5.1,0-5.1,0
					s2.3,1.2,1.2,3.1c-0.8,1.3-3.5,0.1-3.5,0.1s1.3,1.4,1,2.6c-0.2,0.9-1.3,1.4-2.5,1c-0.6-0.2-1.4-0.5-1.4-0.5s0.3,0.1,0.8,0.9
					c0.7,1.1,0,2.3-1.2,2.3c-0.5,0-4.4-1.3-5.1-1.5c-2.1-0.6-6.8-2.9-11-6.9c-4.2-3.9-9.3-3.2-9.3-3.2"/>
				<path class="st4" d="M73.1,177.2c-0.1-0.9,22.4-27.9,31.5-29.4s11.3-1.1,15.9,3.5c4.6,4.6,22.6,47.8,23.9,49.3
					s20,23.4,21.8,24.3c1,0.5,6,2.3,10.9,4.3"/>
				<g>
					<defs>
						<path id="XMLID_00000161597851959968396240000012942610484151324303_" d="M87.1,208.7c0,0-2.9,20.8,5.7,32.6
							c11,14.9,28.9,16.6,40.6,13.6c11.7-2.9,32.1-15.3,45.2-27.2c15.4-14.1,24.3-26.5,31.9-46.4c10.4-27.1,10.6-71.6,25.3-67.5
							c19.5,5.4,16.8-20.1,12.8-22s-28-10.9-43.7,3.8s-22.9,61.2-26.8,72.5c-4.4,12.8-16,25.5-24.2,33.4c-10.3,9.9-29,18.4-44.8,18
							C95.8,219.2,87.1,208.7,87.1,208.7z"/>
					</defs>
					<use xlink:href="#XMLID_00000161597851959968396240000012942610484151324303_"  style="overflow:visible;fill:#FFFFFF;"/>
					<clipPath id="XMLID_00000080188566857271905620000011610404090795079321_">
						<use xlink:href="#XMLID_00000161597851959968396240000012942610484151324303_"  style="overflow:visible;"/>
					</clipPath>
					<path style="clip-path:url(#XMLID_00000080188566857271905620000011610404090795079321_);fill:#3C3C3B;" d="M236.4,86.9
						c-7,1.2-3.8,7.9-4.6,12.5c-1,5.8-5.5,11.6-1.1,16.9c10.7,12.9,28.4-9.5,22.2-20.6C250.4,91.4,241,82.8,236.4,86.9z"/>
					<path style="clip-path:url(#XMLID_00000080188566857271905620000011610404090795079321_);fill:#3C3C3B;" d="M216,86.9
						c5,2.2,2.3,7.9,3.1,12c0.7,3.7,3.2,6.4,4.5,10.1c0.4,1.2,4.8,9.8,4.8,10.1c-0.5,3.8-1.1,5.3-4.2,8.1
						c-5.3,2.6-10.7-7.1-13.8-9.9c-2.8-2.6-4.8-3.2-8.1-4.3c-2.1-0.7-6.2-1-7.7-3.2c-2-3,0.4-3.6,3.3-6.8c2.7-3,3.9-6.4,6.4-9.4
						C207.3,89.7,214.3,89.9,216,86.9z"/>
					<path style="clip-path:url(#XMLID_00000080188566857271905620000011610404090795079321_);fill:#3C3C3B;" d="M186.8,123.2
						c4.1-1.5,8.1,2,12.2,2.9c3.7,0.8,7,1.2,10.6,2.4c3.1,1,7.4,1.5,10.2,3.4c3.9,2.5,2.6,3.4,2.3,6.8c-0.1,1.1,0.2,7.8-0.6,8.6
						c-2.1,2.3-9.4-1.2-12.1-1.6c-8.1-1.3-16.6,3.2-24.6,0.5c-5.2-1.7-1.9-4.5-1.5-9.7C183.5,132.1,183.7,129.8,186.8,123.2z"/>
					<path style="clip-path:url(#XMLID_00000080188566857271905620000011610404090795079321_);fill:#3C3C3B;" d="M176,167.9
						c13.3-0.7,28.3,1.2,41.9,2.7c4.1,7.8-3.5,12.8-6.5,19.1c-3.7,7.8-2.9,16.6-13.6,10.3c-6.2-3.6-13-11.2-19.3-15.7
						C170.7,178.8,167.9,175.8,176,167.9z"/>
					<path style="clip-path:url(#XMLID_00000080188566857271905620000011610404090795079321_);fill:#3C3C3B;" d="M194,218.2
						c-8.3-6-16.2-12.8-24.8-18.6c-11.1-7.5-14.4-6.1-22.1,4.9c4.2,4.1,8.7,9.5,11.4,15c2.1,4.2,3.8,16,8.2,18.6
						C177.6,244.7,189.7,228.7,194,218.2z"/>
					<path style="clip-path:url(#XMLID_00000080188566857271905620000011610404090795079321_);fill:#3C3C3B;" d="M153,250.2
						c-8.7-9.2-11.8-37.7-22.6-38.5c-17.8-1.5-13.2,32.5-12.6,44.1C129.7,256.3,145.7,259.2,153,250.2z"/>
					<path style="clip-path:url(#XMLID_00000080188566857271905620000011610404090795079321_);fill:#3C3C3B;" d="M110.8,261.6
						c-3.8-13.9-0.7-30.6,2.1-43.1c-11.5-4.8-15.9,3.8-20.4,15.7C88.4,245.1,99.2,266.3,110.8,261.6z"/>
					<path style="clip-path:url(#XMLID_00000080188566857271905620000011610404090795079321_);fill:#3C3C3B;" d="M83.4,225.1
						c5.8-1.6,13.6-5.8,16.1-11.4c-7.2-10.5-23.8-3.7-18.4,9.1"/>
					
						<use xlink:href="#XMLID_00000161597851959968396240000012942610484151324303_"  style="overflow:visible;fill:none;stroke:#3C3C3B;stroke-width:0.5;stroke-miterlimit:10;"/>
				</g>
				<path class="st12" d="M194.5,38.7c0.2-0.4,0.4-0.5,0.4,0"/>
				<path class="st13" d="M201.8,43.2c-2.8,3-13.4,9.1-6.2,13.8"/>
				<path class="st13" d="M208,64.2c-1.2-2.1-1.2-4.4,0.5-5.7"/>
				<path class="st13" d="M208.3,31.7c2.4,3.1,7.4,11.1,5.9,14.6"/>
				<path class="st13" d="M76.6,167.9c1.5-4.2,9.6-9.2,12.7-13.2"/>
				<path class="st13" d="M137.6,215.2c5.5,5.7,6.1,15.6,9.8,22.4"/>
				<path class="st13" d="M166.9,195.7c8.2,4.3,14.2,11.7,22.4,15.6"/>
				<path class="st13" d="M195.6,122.5c7.2,1.9,16.1,4,22.4,7.3"/>
				<path class="st13" d="M221.5,95.7c-0.2,0.9-0.1,1.8,0.5,2.4"/>
				<path class="st13" d="M112.7,224.5c-0.3,7.7-3.8,15.1-2.9,23.4"/>
				<path class="st2" d="M94.1,239.6c-1.1-2.5,2.8-10.7,3.9-13.7"/>
				<path class="st2" d="M121,254.2c0.3-9-1.5-17.7-1.5-26.8"/>
				<path class="st2" d="M167.8,234.2c-6.3-6.7-5.6-17.1-11.7-24.4"/>
				<path class="st2" d="M202,197.1c-6.4,0.5-10.5-8.7-15.6-11.2"/>
				<path class="st2" d="M183.9,183c-2.5-1.4-5.8-2.6-7.8-4.4"/>
				<path class="st2" d="M199.1,144c-1.6,0-3.3,0-4.9,0"/>
				<path class="st2" d="M221,123.5c-6.4-1.7-11.1-10.4-17.1-14.2"/>
				<path class="st2" d="M235.7,92.7c-0.5,4.5-1.8,10.2-1.5,14.6"/>
				<path class="st2" d="M203.7,48.4c-3,0.6-4.8,4.2-1.9,6.2"/>
				<path class="st2" d="M174.2,255.7c-1.9-1-4.4-2.3-5.9-3.9"/>
				<path class="st2" d="M177.6,252.8c-1.8-1.6-4.6-2.3-6.8-3.4"/>
				<path class="st2" d="M180.5,250.3c-1.9-1.2-4.8-1.7-6.3-3.9"/>
				<g>
					<path class="st8" d="M231.2,114.7c-0.9-2-1.9-3.3-2.3-5.3c-0.2-0.9-1.1-4.4-3.4-3c-1.3,0.8,2.1,8.6,2.8,9.6
						C229.3,117.4,231.7,116,231.2,114.7z"/>
					<path class="st8" d="M228.4,116.8c-1.5-1.6-2.9-2.4-3.9-4.2c-0.5-0.8-2.5-3.7-4.2-1.6c-0.9,1.1,4.8,7.4,5.8,8
						C227.6,120,229.4,117.9,228.4,116.8z"/>
					<g>
						<path class="st8" d="M225.1,123c-1.5,0.2-3,0.5-4.6,0.5c-0.7,0-3.3,0.1-2.1,2c0.7,1,5.6,0.4,6.3,0
							C225.8,125,225.8,123,225.1,123z"/>
					</g>
					<path class="st8" d="M226.2,120.5c-1.9-0.9-3.1-1.2-4.8-2.5c-0.8-0.6-3.5-2.3-3.7,0.2c-0.1,1.4,5.8,4.6,6.9,4.9
						C226.2,123.5,227.5,121.1,226.2,120.5z"/>
				</g>
				<g>
					<g>
						
							<radialGradient id="SVGID_00000016067926201782932280000017032178710986253954_" cx="6137.5444" cy="918.319" r="66.6417" gradientTransform="matrix(-0.9993 -3.657481e-02 3.657481e-02 -0.9993 6316.5322 1297.6243)" gradientUnits="userSpaceOnUse">
							<stop  offset="0" style="stop-color:#B3C79B"/>
							<stop  offset="1" style="stop-color:#FFFFFF"/>
						</radialGradient>
						<path style="fill:url(#SVGID_00000016067926201782932280000017032178710986253954_);" d="M172.2,183.6
							c-1.5,4.8-20.6,28.4-20.9,39.2c-0.1,3.5,4.4-9.5,6.8-6.3c3.2,4.2,7.9-3.6,12.2-0.1c4.6,3.7,12.8,3.1,18.4,1.2
							c8.3-2.8,10.7-10.6,13.2-18c3-8.9,6.4-13.2,13.7-19.1c8.7-6.9,25.3-5.3,34.1-18.2c3.4-4.9,7.2-15.8,10.5-20.9
							c5.6-8.9,22.5-1.6,20.1-19.3c-4.5-32.9-24.8-37-45.5-35.8c-2.9,0.2-17.2,29.2-20.7,29.9c-5.6,11.1-19.4,24.5-25.9,35.2
							c-3.2,5.3-4.1,12.3-8.3,17.1C176.4,172.7,176.4,177.6,172.2,183.6z"/>
					</g>
					<g>
						<path class="st15" d="M121.4,113.9c-2.2,3.9-3.2,35.6,7.2,41.5s19.9,4.2,28.4,5.2c6.6,0.8,13.3,0.5,20,0.5c3,0,6.1,0,9.1,0.2
							c3.9,0.2,7.4,2.1,11.3,2.3c4.2,0.3,7.4,0.8,11,2.7c0.8,0.4,2.6,1.8,4.2,2.3c1.4,0.4,2.8,0.1,3-0.5c0.4-1-0.3-1.9-1.5-2.6
							c-0.7-0.4-1.7-0.5-2.2-0.8c-0.8-0.5-2.6-1.2-2.4-1.8c0.3-1.1,2.8,0.5,3.7,1c1.2,0.6,3.2,1.3,3.7-0.5c0.3-0.9-0.1-1.9-1.1-2.1
							c-1.1-0.2-1.7-0.2-3.1-0.5c-0.9-0.2-2.8-0.3-2.3-1.6c0.4-1.1,1.5-0.4,2.3-0.2c0.6,0.1,3.1,1,3.8,1.2c2.7,0.5,2.5-3,1-3.2
							c-0.4,0-3.2-0.3-4.3-0.4c-1.3-0.2-2.4-0.7-2.1-1.6c0.4-1,1.2-0.5,3.1-0.4c0.8,0,1.2,0.1,1.9,0.4c1.2,0.6,2.8,1.3,3.3-0.9
							c0.2-1.6-2.1-2-2.6-2.1c-1.3-0.2-1.2,0.1-2.2-0.2c-1.9-0.4-2.6-1.1-3.3-2.3c-0.7-1.2,0.4-1.8,1.4-2.4c1.7-1.1,7.1-2.3,5.4-5.3
							c-1.1-1.9-3.3,0-6.4,1.4c-1.2,0.6-3.7,0.6-5.8,1.6c-2.5,1.2-4.1,2.9-6.4,3.6c-3.5,1-5.3-0.1-8.2-1.3c-4.7-2-27.4-8.7-33.1-8.7
							s1-23.6,1-29.5c0,0-0.8-14.2-15.7-14.2S121.4,113.9,121.4,113.9z"/>
						<path class="st8" d="M216.2,154.5c0.2,1.1,2.3,1.1,2.9,0.2c0.3-0.5,0.6-1.9-0.1-1.9c0,0-0.4-0.3-0.4-0.3
							c-0.6-0.5-1.2-0.9-1.9-0.2C216.3,152.8,216,153.8,216.2,154.5z"/>
						<path class="st8" d="M217.5,156.9c-1-0.3-0.9,0.4-1.1,1.1c-0.1,0.4-0.8,1.4-0.4,1.7c1.3,1.2,2.2-0.3,2.4-1.1
							C218.6,157.8,218.4,157,217.5,156.9z"/>
						<path class="st8" d="M214.2,160.8c-0.4,0.3-0.6,1-0.8,1.6c-0.2,0.6-1.2,1.1-0.5,1.3c3.5,1.3,3.8,0.1,3.8-1.3
							C216.6,161.4,215.2,160.8,214.2,160.8z"/>
						<path class="st8" d="M211.7,168.1c0.6-0.4,1.1-1.3,1.4-1.9c0.3-0.8,0.4-1.2,1.2-0.6c1.2,0.8,2.2,2.6,0.1,2.9
							C213.5,168.7,212.6,168.5,211.7,168.1z"/>
						<path class="st8" d="M210.9,143.1c0.5,1.3,1.2,2.6,2.2,3.6c1.3-0.5,2-1.1,2.7-1.4c0.8-0.3,1.4-1,2-1.6
							c0.5-0.7,0.4-1.8-0.3-2.5c-1-1-2.1,0-3.1,0.4c-0.7,0.3-1.4,0.5-2,0.8C211.9,142.7,211.4,142.9,210.9,143.1z"/>
						<path class="st16" d="M211.5,162.1c0.1-0.2,0.2-0.4,0.2-0.7"/>
						<path class="st16" d="M212.7,158.2c0-0.1,0.2-0.7,0.3-1"/>
						<path class="st16" d="M213.1,158.6c0.1-0.4,0.3-0.8,0.4-1.2"/>
						<path class="st16" d="M213.3,153.6c0.1-0.4,0.3-0.7,0.4-1"/>
						<path class="st16" d="M213.8,154c0.1-0.4,0.1-1.1,0.3-1.4"/>
						<path class="st16" d="M209.5,144.7c0.1,0.6,0.4,1.3,0.7,1.8"/>
						<path class="st16" d="M209,145.2c0.1,0.2,0.2,0.5,0.3,0.7"/>
						<path class="st16" d="M210.6,166.7c0.4-0.3,0.7-0.8,0.7-1.3"/>
						<path class="st16" d="M210.2,166.2c0.1-0.2,0.2-0.3,0.3-0.5"/>
						<path class="st13" d="M156.1,138.1c-1.7,0.1-3.4,0.6-4.9,1.5"/>
					</g>
				</g>
				<g>
					
						<radialGradient id="SVGID_00000016038967374178416440000010908757843712579003_" cx="237.5" cy="130.7632" r="3.0811" gradientUnits="userSpaceOnUse">
						<stop  offset="0" style="stop-color:#8F925B"/>
						<stop  offset="1.322751e-02" style="stop-color:#72A255"/>
						<stop  offset="0.2341" style="stop-color:#74A458"/>
						<stop  offset="0.3872" style="stop-color:#7CA961"/>
						<stop  offset="0.5196" style="stop-color:#89B170"/>
						<stop  offset="0.6404" style="stop-color:#9BBD86"/>
						<stop  offset="0.7534" style="stop-color:#B2CCA2"/>
						<stop  offset="0.8604" style="stop-color:#CFDFC5"/>
						<stop  offset="0.9609" style="stop-color:#F0F5ED"/>
						<stop  offset="1" style="stop-color:#FFFFFF"/>
					</radialGradient>
					<circle style="fill:url(#SVGID_00000016038967374178416440000010908757843712579003_);" cx="237.5" cy="130.8" r="3.1"/>
				</g>
				<g>
					
						<radialGradient id="SVGID_00000176006970849201030290000010304239491262013371_" cx="224.4915" cy="145.3021" r="3.0811" gradientUnits="userSpaceOnUse">
						<stop  offset="0" style="stop-color:#8F925B"/>
						<stop  offset="1.322751e-02" style="stop-color:#72A255"/>
						<stop  offset="0.2341" style="stop-color:#74A458"/>
						<stop  offset="0.3872" style="stop-color:#7CA961"/>
						<stop  offset="0.5196" style="stop-color:#89B170"/>
						<stop  offset="0.6404" style="stop-color:#9BBD86"/>
						<stop  offset="0.7534" style="stop-color:#B2CCA2"/>
						<stop  offset="0.8604" style="stop-color:#CFDFC5"/>
						<stop  offset="0.9609" style="stop-color:#F0F5ED"/>
						<stop  offset="1" style="stop-color:#FFFFFF"/>
					</radialGradient>
					<circle style="fill:url(#SVGID_00000176006970849201030290000010304239491262013371_);" cx="224.5" cy="145.3" r="3.1"/>
				</g>
				<g>
					
						<radialGradient id="SVGID_00000093878772230822992760000004280351994326164381_" cx="220.7942" cy="163.7887" r="3.0811" gradientUnits="userSpaceOnUse">
						<stop  offset="0" style="stop-color:#8F925B"/>
						<stop  offset="1.322751e-02" style="stop-color:#72A255"/>
						<stop  offset="0.2341" style="stop-color:#74A458"/>
						<stop  offset="0.3872" style="stop-color:#7CA961"/>
						<stop  offset="0.5196" style="stop-color:#89B170"/>
						<stop  offset="0.6404" style="stop-color:#9BBD86"/>
						<stop  offset="0.7534" style="stop-color:#B2CCA2"/>
						<stop  offset="0.8604" style="stop-color:#CFDFC5"/>
						<stop  offset="0.9609" style="stop-color:#F0F5ED"/>
						<stop  offset="1" style="stop-color:#FFFFFF"/>
					</radialGradient>
					<circle style="fill:url(#SVGID_00000093878772230822992760000004280351994326164381_);" cx="220.8" cy="163.8" r="3.1"/>
				</g>
				<g>
					
						<radialGradient id="SVGID_00000132070889528441103170000003174258345408448640_" cx="191.2156" cy="181.6591" r="3.0811" gradientUnits="userSpaceOnUse">
						<stop  offset="0" style="stop-color:#8F925B"/>
						<stop  offset="1.322751e-02" style="stop-color:#72A255"/>
						<stop  offset="0.2341" style="stop-color:#74A458"/>
						<stop  offset="0.3872" style="stop-color:#7CA961"/>
						<stop  offset="0.5196" style="stop-color:#89B170"/>
						<stop  offset="0.6404" style="stop-color:#9BBD86"/>
						<stop  offset="0.7534" style="stop-color:#B2CCA2"/>
						<stop  offset="0.8604" style="stop-color:#CFDFC5"/>
						<stop  offset="0.9609" style="stop-color:#F0F5ED"/>
						<stop  offset="1" style="stop-color:#FFFFFF"/>
					</radialGradient>
					<circle style="fill:url(#SVGID_00000132070889528441103170000003174258345408448640_);" cx="191.2" cy="181.7" r="3.1"/>
				</g>
				<g>
					
						<radialGradient id="SVGID_00000133499139743004827120000004865388762978743957_" cx="228.873" cy="131.3794" r="3.0811" gradientUnits="userSpaceOnUse">
						<stop  offset="0" style="stop-color:#8F925B"/>
						<stop  offset="1.322751e-02" style="stop-color:#72A255"/>
						<stop  offset="0.2341" style="stop-color:#74A458"/>
						<stop  offset="0.3872" style="stop-color:#7CA961"/>
						<stop  offset="0.5196" style="stop-color:#89B170"/>
						<stop  offset="0.6404" style="stop-color:#9BBD86"/>
						<stop  offset="0.7534" style="stop-color:#B2CCA2"/>
						<stop  offset="0.8604" style="stop-color:#CFDFC5"/>
						<stop  offset="0.9609" style="stop-color:#F0F5ED"/>
						<stop  offset="1" style="stop-color:#FFFFFF"/>
					</radialGradient>
					<circle style="fill:url(#SVGID_00000133499139743004827120000004865388762978743957_);" cx="228.9" cy="131.4" r="3.1"/>
				</g>
				<g>
					
						<radialGradient id="SVGID_00000088814466131443331700000006687561184036678059_" cx="-844.0242" cy="186.0527" r="3.0811" gradientTransform="matrix(0.7459 0 0 0.7614 832.8926 33.3453)" gradientUnits="userSpaceOnUse">
						<stop  offset="0" style="stop-color:#8F925B"/>
						<stop  offset="1.322751e-02" style="stop-color:#72A255"/>
						<stop  offset="0.2341" style="stop-color:#74A458"/>
						<stop  offset="0.3872" style="stop-color:#7CA961"/>
						<stop  offset="0.5196" style="stop-color:#89B170"/>
						<stop  offset="0.6404" style="stop-color:#9BBD86"/>
						<stop  offset="0.7534" style="stop-color:#B2CCA2"/>
						<stop  offset="0.8604" style="stop-color:#CFDFC5"/>
						<stop  offset="0.9609" style="stop-color:#F0F5ED"/>
						<stop  offset="1" style="stop-color:#FFFFFF"/>
					</radialGradient>
					
						<ellipse style="fill:url(#SVGID_00000088814466131443331700000006687561184036678059_);" cx="203.4" cy="175" rx="2.3" ry="2.3"/>
				</g>
				<g>
					
						<radialGradient id="SVGID_00000084501073897759246890000007228725869305703303_" cx="197.3778" cy="166.8698" r="3.0811" gradientUnits="userSpaceOnUse">
						<stop  offset="0" style="stop-color:#8F925B"/>
						<stop  offset="1.322751e-02" style="stop-color:#72A255"/>
						<stop  offset="0.2341" style="stop-color:#74A458"/>
						<stop  offset="0.3872" style="stop-color:#7CA961"/>
						<stop  offset="0.5196" style="stop-color:#89B170"/>
						<stop  offset="0.6404" style="stop-color:#9BBD86"/>
						<stop  offset="0.7534" style="stop-color:#B2CCA2"/>
						<stop  offset="0.8604" style="stop-color:#CFDFC5"/>
						<stop  offset="0.9609" style="stop-color:#F0F5ED"/>
						<stop  offset="1" style="stop-color:#FFFFFF"/>
					</radialGradient>
					<circle style="fill:url(#SVGID_00000084501073897759246890000007228725869305703303_);" cx="197.4" cy="166.9" r="3.1"/>
				</g>
				<g>
					
						<radialGradient id="SVGID_00000031897156959328516200000001056861068353495170_" cx="204.9214" cy="122.993" r="3.0811" gradientUnits="userSpaceOnUse">
						<stop  offset="0" style="stop-color:#8F925B"/>
						<stop  offset="1.322751e-02" style="stop-color:#72A255"/>
						<stop  offset="0.2341" style="stop-color:#74A458"/>
						<stop  offset="0.3872" style="stop-color:#7CA961"/>
						<stop  offset="0.5196" style="stop-color:#89B170"/>
						<stop  offset="0.6404" style="stop-color:#9BBD86"/>
						<stop  offset="0.7534" style="stop-color:#B2CCA2"/>
						<stop  offset="0.8604" style="stop-color:#CFDFC5"/>
						<stop  offset="0.9609" style="stop-color:#F0F5ED"/>
						<stop  offset="1" style="stop-color:#FFFFFF"/>
					</radialGradient>
					<circle style="fill:url(#SVGID_00000031897156959328516200000001056861068353495170_);" cx="204.9" cy="123" r="3.1"/>
				</g>
				<g>
					
						<radialGradient id="SVGID_00000108309703877944442310000004793019704047527558_" cx="226.9599" cy="97.4502" r="3.0811" gradientUnits="userSpaceOnUse">
						<stop  offset="0" style="stop-color:#8F925B"/>
						<stop  offset="1.322751e-02" style="stop-color:#72A255"/>
						<stop  offset="0.2341" style="stop-color:#74A458"/>
						<stop  offset="0.3872" style="stop-color:#7CA961"/>
						<stop  offset="0.5196" style="stop-color:#89B170"/>
						<stop  offset="0.6404" style="stop-color:#9BBD86"/>
						<stop  offset="0.7534" style="stop-color:#B2CCA2"/>
						<stop  offset="0.8604" style="stop-color:#CFDFC5"/>
						<stop  offset="0.9609" style="stop-color:#F0F5ED"/>
						<stop  offset="1" style="stop-color:#FFFFFF"/>
					</radialGradient>
					<circle style="fill:url(#SVGID_00000108309703877944442310000004793019704047527558_);" cx="227" cy="97.5" r="3.1"/>
				</g>
				<g>
					
						<radialGradient id="SVGID_00000115513963238080242390000008104720628047442083_" cx="232.5703" cy="121.5199" r="3.0811" gradientUnits="userSpaceOnUse">
						<stop  offset="0" style="stop-color:#8F925B"/>
						<stop  offset="1.322751e-02" style="stop-color:#72A255"/>
						<stop  offset="0.2341" style="stop-color:#74A458"/>
						<stop  offset="0.3872" style="stop-color:#7CA961"/>
						<stop  offset="0.5196" style="stop-color:#89B170"/>
						<stop  offset="0.6404" style="stop-color:#9BBD86"/>
						<stop  offset="0.7534" style="stop-color:#B2CCA2"/>
						<stop  offset="0.8604" style="stop-color:#CFDFC5"/>
						<stop  offset="0.9609" style="stop-color:#F0F5ED"/>
						<stop  offset="1" style="stop-color:#FFFFFF"/>
					</radialGradient>
					<circle style="fill:url(#SVGID_00000115513963238080242390000008104720628047442083_);" cx="232.6" cy="121.5" r="3.1"/>
				</g>
			</g>
		</g>
		<path class="st27" d="M248,80.4c0,0-0.4,0.8-0.7,1.9c-0.3,1.1-0.2,1.3,0.5,2.1c0.7,0.8,1.2,1,0.9,1.8c-0.2,0.8-0.7,2.3-0.7,2.3
			s3.7-2.9,3.2-4.1C250.8,83.3,248,80.4,248,80.4z"/>
	</g>
</g>
</svg>
